<?xml version="1.0" encoding="UTF-8" standalone="no"?>
<!-- Created with Inkscape (http://www.inkscape.org/) -->

<svg
   xmlns:dc="http://purl.org/dc/elements/1.1/"
   xmlns:cc="http://creativecommons.org/ns#"
   xmlns:rdf="http://www.w3.org/1999/02/22-rdf-syntax-ns#"
   xmlns:svg="http://www.w3.org/2000/svg"
   xmlns="http://www.w3.org/2000/svg"
   xmlns:sodipodi="http://sodipodi.sourceforge.net/DTD/sodipodi-0.dtd"
   xmlns:inkscape="http://www.inkscape.org/namespaces/inkscape"
   inkscape:export-ydpi="90.000000"
   inkscape:export-xdpi="90.000000"
   width="736"
   height="544"
   id="svg11300"
   sodipodi:version="0.32"
   inkscape:version="0.92.2 5c3e80d, 2017-08-06"
   sodipodi:docname="mega-pending.svg"
   inkscape:output_extension="org.inkscape.output.svg.inkscape"
   version="1.0"
   style="display:inline;enable-background:new"
   inkscape:export-filename="/home/sam/paper-template.png">
  <title
     id="title3004">Paper Icon Theme</title>
  <sodipodi:namedview
     stroke="#ef2929"
     fill="#f57900"
     id="base"
     pagecolor="#ffffff"
     bordercolor="#666666"
     borderopacity="0.25490196"
     inkscape:pageopacity="0"
     inkscape:pageshadow="2"
     inkscape:zoom="1"
     inkscape:cx="91.329965"
     inkscape:cy="149.57639"
     inkscape:current-layer="layer2"
     showgrid="false"
     inkscape:grid-bbox="true"
     inkscape:document-units="px"
     inkscape:showpageshadow="false"
     inkscape:window-width="1920"
     inkscape:window-height="1023"
     inkscape:window-x="0"
     inkscape:window-y="27"
     width="400px"
     height="300px"
     inkscape:snap-nodes="true"
     inkscape:snap-bbox="true"
     gridtolerance="10000"
     inkscape:object-nodes="true"
     inkscape:snap-grids="true"
     showguides="false"
     inkscape:guide-bbox="true"
     inkscape:window-maximized="1"
     inkscape:object-paths="true"
     inkscape:snap-intersection-paths="true"
     inkscape:snap-smooth-nodes="true"
     inkscape:snap-bbox-midpoints="true"
     inkscape:snap-bbox-edge-midpoints="false"
     inkscape:snap-global="true">
    <inkscape:grid
       spacingy="1"
       spacingx="1"
       id="grid5883"
       type="xygrid"
       enabled="true"
       visible="true"
       empspacing="4"
       snapvisiblegridlinesonly="true"
       originx="0"
       originy="0" />
    <inkscape:grid
       type="xygrid"
       id="grid11592"
       empspacing="2"
       visible="true"
       enabled="false"
       spacingx="0.5"
       spacingy="0.5"
       color="#ff0000"
       opacity="0.1254902"
       empcolor="#ff0000"
       empopacity="0.25098039"
       snapvisiblegridlinesonly="true"
       originx="0"
       originy="0" />
  </sodipodi:namedview>
  <defs
     id="defs3">
    <filter
       inkscape:collect="always"
       style="color-interpolation-filters:sRGB"
       id="filter4227"
       x="-0.024"
       width="1.048"
       y="-0.024"
       height="1.048">
      <feGaussianBlur
         inkscape:collect="always"
         stdDeviation="4.48"
         id="feGaussianBlur4229" />
    </filter>
  </defs>
  <metadata
     id="metadata4">
    <rdf:RDF>
      <cc:Work
         rdf:about="">
        <dc:format>image/svg+xml</dc:format>
        <dc:type
           rdf:resource="http://purl.org/dc/dcmitype/StillImage" />
        <dc:creator>
          <cc:Agent>
            <dc:title>Sam Hewitt</dc:title>
          </cc:Agent>
        </dc:creator>
        <dc:source />
        <cc:license
           rdf:resource="http://creativecommons.org/licenses/by-sa/3.0/" />
        <dc:title>Paper Icon Theme</dc:title>
        <dc:subject>
          <rdf:Bag />
        </dc:subject>
        <dc:date />
        <dc:rights>
          <cc:Agent>
            <dc:title />
          </cc:Agent>
        </dc:rights>
        <dc:publisher>
          <cc:Agent>
            <dc:title />
          </cc:Agent>
        </dc:publisher>
        <dc:identifier />
        <dc:relation />
        <dc:language />
        <dc:coverage />
        <dc:description />
        <dc:contributor>
          <cc:Agent>
            <dc:title />
          </cc:Agent>
        </dc:contributor>
      </cc:Work>
      <cc:Work
         rdf:about="">
        <dc:format>image/svg+xml</dc:format>
        <dc:type
           rdf:resource="http://purl.org/dc/dcmitype/StillImage" />
      </cc:Work>
      <cc:License
         rdf:about="http://creativecommons.org/licenses/by-sa/3.0/">
        <cc:permits
           rdf:resource="http://creativecommons.org/ns#Reproduction" />
        <cc:permits
           rdf:resource="http://creativecommons.org/ns#Distribution" />
        <cc:requires
           rdf:resource="http://creativecommons.org/ns#Notice" />
        <cc:requires
           rdf:resource="http://creativecommons.org/ns#Attribution" />
        <cc:permits
           rdf:resource="http://creativecommons.org/ns#DerivativeWorks" />
        <cc:requires
           rdf:resource="http://creativecommons.org/ns#ShareAlike" />
      </cc:License>
    </rdf:RDF>
  </metadata>
  <g
     style="display:inline"
     inkscape:groupmode="layer"
     inkscape:label="Icon"
     id="layer1"
     transform="translate(0,244)">
    <g
       style="display:none"
       inkscape:label="Baseplate"
       id="layer7"
       inkscape:groupmode="layer">
      <text
         y="332.48523"
         xml:space="preserve"
         x="31.006836"
         style="font-style:normal;font-variant:normal;font-weight:normal;font-stretch:normal;line-height:0%;font-family:'DejaVu Sans';-inkscape-font-specification:'DejaVu Sans';display:inline;fill:#000000;fill-opacity:1;stroke:none;enable-background:new"
         inkscape:label="context"
         id="context"><tspan
           style="font-style:normal;font-variant:normal;font-weight:normal;font-stretch:normal;font-size:18px;line-height:1.25;font-family:'DejaVu Sans';-inkscape-font-specification:'DejaVu Sans'"
           y="332.48523"
           x="31.006836"
           sodipodi:role="line"
           id="tspan3933">emblems</tspan></text>
      <text
         y="332.48523"
         xml:space="preserve"
         x="158.48828"
         style="font-style:normal;font-variant:normal;font-weight:bold;font-stretch:normal;line-height:0%;font-family:'DejaVu Sans';-inkscape-font-specification:'DejaVu Sans Bold';text-align:start;writing-mode:lr-tb;text-anchor:start;display:inline;fill:#000000;fill-opacity:1;stroke:none;enable-background:new"
         inkscape:label="icon-name"
         id="icon-name"><tspan
           style="font-style:normal;font-variant:normal;font-weight:bold;font-stretch:normal;font-size:18px;line-height:1.25;font-family:'DejaVu Sans';-inkscape-font-specification:'DejaVu Sans Bold'"
           y="332.48523"
           x="158.48828"
           sodipodi:role="line"
           id="tspan3937">mega-pending</tspan></text>
      <rect
         style="display:inline;overflow:visible;visibility:visible;fill:#e9e9e9;fill-opacity:1;fill-rule:nonzero;stroke:none;stroke-width:2;marker:none;enable-background:accumulate"
         id="rect16x16"
         width="16"
         height="16"
         x="-48"
         y="268"
         inkscape:label="16x16"
         transform="scale(-1,1)" />
      <rect
         style="display:inline;overflow:visible;visibility:visible;fill:#e9e9e9;fill-opacity:1;fill-rule:nonzero;stroke:none;stroke-width:2;marker:none;enable-background:accumulate"
         id="rect24x24"
         width="24"
         height="24"
         x="-92"
         y="260"
         inkscape:label="24x24"
         transform="scale(-1,1)" />
      <rect
         style="display:inline;overflow:visible;visibility:visible;fill:#e9e9e9;fill-opacity:1;fill-rule:nonzero;stroke:none;stroke-width:2;marker:none;enable-background:accumulate"
         id="rect32x32"
         width="32"
         height="32"
         x="-144"
         y="252"
         inkscape:label="32x32"
         transform="scale(-1,1)" />
      <rect
         inkscape:label="48x48"
         y="236"
         x="-208"
         height="48"
         width="48"
         id="rect48x48"
         style="display:inline;overflow:visible;visibility:visible;fill:#e9e9e9;fill-opacity:1;fill-rule:nonzero;stroke:none;stroke-width:2;marker:none;enable-background:accumulate"
         transform="scale(-1,1)" />
      <rect
         style="display:inline;overflow:visible;visibility:visible;fill:#e9e9e9;fill-opacity:1;fill-rule:nonzero;stroke:none;stroke-width:2;marker:none;enable-background:accumulate"
         id="rect3951"
         width="512"
         height="512"
         x="-736"
         y="-228"
         inkscape:label="48x48"
         transform="scale(-1,1)" />
      <rect
         transform="scale(-1,1)"
         inkscape:label="16x16"
         y="276"
         x="-16"
         height="8"
         width="8"
         id="rect4208"
         style="display:inline;overflow:visible;visibility:visible;fill:#e9e9e9;fill-opacity:1;fill-rule:nonzero;stroke:none;stroke-width:2;marker:none;enable-background:accumulate" />
    </g>
    <g
       inkscape:groupmode="layer"
       id="layer6"
       inkscape:label="Symbols"
       style="display:inline">
      <rect
         ry="11"
         rx="11"
         y="-91"
         x="-284"
         height="22"
         width="22"
         id="rect4400"
         style="opacity:0.2;fill:#000000;fill-opacity:1;stroke:none"
         transform="matrix(0,-1,-1,0,0,0)" />
      <rect
         transform="matrix(0,-1,-1,0,0,0)"
         style="opacity:0.2;fill:#000000;fill-opacity:1;stroke:none"
         id="rect4402"
         width="40"
         height="40"
         x="-281"
         y="-204"
         rx="20"
         ry="20" />
      <rect
         transform="matrix(0,-1,-1,0,0,0)"
         style="opacity:0.2;fill:#000000;fill-opacity:1;stroke:none"
         id="rect4404"
         width="28"
         height="28"
         x="-283"
         y="-142"
         rx="14"
         ry="14" />
      <rect
         transform="matrix(0,-1,-1,0,16,0)"
         style="opacity:0.1;fill:#000000;fill-opacity:1;stroke:#000000;stroke-width:8;stroke-miterlimit:4;stroke-dasharray:none;stroke-opacity:1;filter:url(#filter4227)"
         id="rect4406"
         width="448"
         height="448"
         x="-256"
         y="-688"
         rx="224"
         ry="224" />
      <rect
         ry="20"
         rx="20"
         y="-204"
         x="-280"
         height="40"
         width="40"
         id="rect4408"
         style="fill:#ff9800;fill-opacity:1;stroke:none"
         transform="matrix(0,-1,-1,0,0,0)" />
      <rect
         transform="matrix(0,-1,-1,0,0,0)"
         style="fill:#ff9800;fill-opacity:1;stroke:none"
         id="rect4410"
         width="22"
         height="22"
         x="-283"
         y="-91"
         rx="11"
         ry="11" />
      <rect
         ry="14"
         rx="14"
         y="-142"
         x="-282"
         height="28"
         width="28"
         id="rect4412"
         style="fill:#ff9800;fill-opacity:1;stroke:none"
         transform="matrix(0,-1,-1,0,0,0)" />
      <rect
         ry="8"
         rx="8"
         y="-48"
         x="-284"
         height="16"
         width="16"
         id="rect4414"
         style="display:inline;fill:#ff9800;fill-opacity:1;stroke:none;enable-background:new"
         transform="matrix(0,-1,-1,0,0,0)" />
      <rect
         ry="224"
         rx="224"
         y="-688"
         x="-256"
         height="448"
         width="448"
         id="rect4416"
         style="opacity:0.2;fill:#000000;fill-opacity:1;stroke:none;filter:url(#filter4227)"
         transform="matrix(0,-1,-1,0,16,0)" />
      <rect
         transform="matrix(0,-1,-1,0,0,0)"
         style="fill:#ff9800;fill-opacity:1;stroke:none"
         id="rect4418"
         width="448"
         height="448"
         x="-252"
         y="-704"
         rx="224"
         ry="224" />
      <rect
         transform="matrix(0,-1,-1,0,0,0)"
         style="display:inline;fill:#ff9800;fill-opacity:1;stroke:none;enable-background:new"
         id="rect4420"
         width="8"
         height="8"
         x="-284"
         y="-16"
         rx="1"
         ry="1" />
      <path
         inkscape:connector-curvature="0"
         style="opacity:0.1;fill:#ffffff;fill-opacity:1;stroke:none"
         d="m 128,254 c -7.756,0 -14,6.244 -14,14 0,0.16884 0.0195,0.33264 0.0254,0.5 0.26374,-7.52057 6.38745,-13.5 13.97461,-13.5 7.58716,0 13.71087,5.97943 13.97461,13.5 0.006,-0.16736 0.0254,-0.33116 0.0254,-0.5 0,-7.756 -6.244,-14 -14,-14 z"
         id="path4422" />
      <path
         inkscape:connector-curvature="0"
         style="opacity:0.1;fill:#ffffff;fill-opacity:1;stroke:none"
         d="m 184,240 c -11.08,0 -20,8.92 -20,20 0,0.16787 0.008,0.33314 0.0117,0.5 0.26469,-10.84614 9.07617,-19.5 19.9883,-19.5 10.91213,0 19.72361,8.65386 19.98828,19.5 0.004,-0.16686 0.0117,-0.33213 0.0117,-0.5 0,-11.08 -8.92,-20 -20,-20 z"
         id="path4424" />
      <path
         inkscape:connector-curvature="0"
         style="opacity:0.1;fill:#ffffff;fill-opacity:1;stroke:none"
         d="m 80,261 c -6.094,0 -11,4.906 -11,11 0,0.16899 0.01793,0.33292 0.02539,0.5 C 69.287156,266.64183 74.074989,262 80,262 c 5.925011,0 10.712844,4.64183 10.974609,10.5 C 90.982075,272.33292 91,272.16899 91,272 91,265.906 86.094,261 80,261 Z"
         id="path4428" />
      <path
         inkscape:connector-curvature="0"
         style="opacity:0.2;fill:#ffffff;fill-opacity:1;stroke:none"
         d="m 480,-196 c -124.096,0 -224,99.904 -224,224 0,0.33437 0.0103,0.66598 0.0117,1 C 256.5481,-94.63106 356.23837,-194 480,-194 603.76163,-194 703.4519,-94.63106 703.98828,29 703.98973,28.66598 704,28.33437 704,28 704,-96.096 604.096,-196 480,-196 Z"
         id="path4430" />
      <path
         id="path4432"
         d="M 480,254 C 355.904,254 256,154.096 256,30 c 0,-0.33437 0.0103,-0.66598 0.0117,-1 0.5364,123.63106 100.22667,223 223.9883,223 123.76163,0 223.4519,-99.36894 223.98828,-223 10e-4,0.33402 0.0117,0.66563 0.0117,1 0,124.096 -99.904,224 -224,224 z"
         style="opacity:0.2;fill:#000000;fill-opacity:1;stroke:none"
         inkscape:connector-curvature="0" />
    </g>
    <g
       inkscape:groupmode="layer"
       id="layer2"
       inkscape:label="Pictogram"
       style="display:inline">
      <path
         style="display:inline;fill:#ffffff;fill-opacity:1;stroke:none;stroke-width:0.71428579;enable-background:new"
         d="m 40,271 c -2.752979,0 -5,2.24702 -5,5 0,2.75298 2.247021,5 5,5 2.752979,0 5,-2.24702 5,-5 0,-2.75298 -2.247021,-5 -5,-5 z m 0,1.42858 c 1.980921,0 3.571429,1.5905 3.571429,3.57142 0,1.98092 -1.590508,3.57142 -3.571429,3.57142 -1.980921,0 -3.571429,-1.5905 -3.571429,-3.57142 0,-1.98092 1.590508,-3.57142 3.571429,-3.57142 z m -0.715681,1.07421 v 3.04828 c 0.7673,0.51153 1.534599,1.02305 2.301898,1.5346 0.132069,-0.1981 0.264136,-0.3962 0.396205,-0.59433 -0.661272,-0.44084 -1.322544,-0.88167 -1.983818,-1.32253 v -2.66602 z"
         id="path6366-7"
         inkscape:connector-curvature="0" />
      <path
         inkscape:connector-curvature="0"
         style="display:inline;fill:#ffffff;fill-opacity:1;stroke:none;stroke-width:0.42857143;enable-background:new"
         d="m 12,277 c -1.651787,0 -3,1.34821 -3,3 0,1.65179 1.348213,3 3,3 1.651788,0 3,-1.34821 3,-3 0,-1.65179 -1.348212,-3 -3,-3 z m 0,0.85714 c 1.188553,0 2.142857,0.95431 2.142857,2.14286 0,1.18855 -0.954304,2.14286 -2.142857,2.14286 -1.188553,0 -2.1428571,-0.95431 -2.1428571,-2.14286 0,-1.18855 0.9543041,-2.14286 2.1428571,-2.14286 z m -0.429408,0.64454 v 1.82896 c 0.460379,0.30692 0.920758,0.61384 1.381138,0.92076 0.07924,-0.11887 0.158482,-0.23773 0.237723,-0.35659 -0.396763,-0.26451 -0.793527,-0.52902 -1.19029,-0.79353 v -1.5996 z"
         id="path6366-7-3" />
      <path
         style="display:inline;fill:#ffffff;fill-opacity:1;stroke:none;stroke-width:1;enable-background:new"
         d="m 80,265 c -3.85417,0 -7,3.14583 -7,7 0,3.85417 3.14583,7 7,7 3.85417,0 7,-3.14583 7,-7 0,-3.85417 -3.14583,-7 -7,-7 z m 0,2.00001 c 2.77329,0 5,2.2267 5,4.99999 0,2.77329 -2.22671,4.99999 -5,4.99999 -2.77329,0 -5,-2.2267 -5,-4.99999 0,-2.77329 2.22671,-4.99999 5,-4.99999 z m -1.001954,1.50389 v 4.26759 c 1.07422,0.71615 2.148439,1.43228 3.222657,2.14844 0.184895,-0.27734 0.369792,-0.55468 0.554688,-0.83205 -0.925781,-0.61718 -1.851562,-1.23435 -2.777345,-1.85154 v -3.73244 z"
         id="path6366-7-6"
         inkscape:connector-curvature="0" />
      <path
         style="display:inline;fill:#ffffff;fill-opacity:1;stroke:none;stroke-width:1.28571427;enable-background:new"
         d="m 128,259 c -4.95536,0 -9,4.04464 -9,9 0,4.95536 4.04464,9 9,9 4.95536,0 9,-4.04464 9,-9 0,-4.95536 -4.04464,-9 -9,-9 z m 0,2.57144 c 3.56566,0 6.42857,2.8629 6.42857,6.42856 0,3.56566 -2.86291,6.42856 -6.42857,6.42856 -3.56566,0 -6.42857,-2.8629 -6.42857,-6.42856 0,-3.56566 2.86291,-6.42856 6.42857,-6.42856 z m -1.28822,1.93357 v 5.48691 c 1.38114,0.92076 2.76228,1.8415 4.14341,2.76228 0.23772,-0.35658 0.47545,-0.71316 0.71317,-1.06978 -1.19029,-0.79352 -2.38058,-1.58702 -3.57087,-2.38055 v -4.79886 z"
         id="path6366-7-6-7"
         inkscape:connector-curvature="0" />
      <path
         style="display:inline;fill:#ffffff;fill-opacity:1;stroke:none;stroke-width:1.85714281;enable-background:new"
         d="m 184,247 c -7.15774,0 -13,5.84226 -13,13 0,7.15774 5.84226,13 13,13 7.15774,0 13,-5.84226 13,-13 0,-7.15774 -5.84226,-13 -13,-13 z m 0,3.7143 c 5.1504,0 9.28571,4.1353 9.28571,9.2857 0,5.1504 -4.13531,9.2857 -9.28571,9.2857 -5.1504,0 -9.28571,-4.1353 -9.28571,-9.2857 0,-5.1504 4.13531,-9.2857 9.28571,-9.2857 z m -1.86076,2.79294 v 7.92553 c 1.99498,1.32999 3.98996,2.65995 5.98492,3.98996 0.34338,-0.51506 0.68676,-1.03012 1.03014,-1.54523 -1.71931,-1.1462 -3.43862,-2.29237 -5.15793,-3.43858 v -6.93168 z"
         id="path6366-7-6-7-5"
         inkscape:connector-curvature="0" />
      <path
         style="display:inline;fill:#ffffff;fill-opacity:1;stroke:none;stroke-width:20.5714283;enable-background:new"
         d="m 480,-116 c -79.28574,0 -144,64.71426 -144,144 0,79.28574 64.71426,144 144,144 79.28574,0 144,-64.71426 144,-144 0,-79.28574 -64.71426,-144 -144,-144 z m 0,41.14302 c 57.05058,0 102.8571,45.8064 102.8571,102.85698 0,57.05058 -45.80652,102.85698 -102.8571,102.85698 -57.05058,0 -102.8571,-45.8064 -102.8571,-102.85698 0,-57.05058 45.80652,-102.85698 102.8571,-102.85698 z m -20.6115,30.93718 v 87.79048 c 22.09824,14.7322 44.19648,29.46406 66.2945,44.19648 3.8036,-5.70528 7.60719,-11.41056 11.41078,-17.11639 C 518.04912,58.2544 499.00446,45.55836 479.95979,32.86188 V -43.9198 Z"
         id="path6366-7-6-7-5-3"
         inkscape:connector-curvature="0" />
    </g>
  </g>
</svg>
