<?xml version="1.0" encoding="UTF-8" standalone="no"?>
<!-- Created with Inkscape (http://www.inkscape.org/) -->

<svg
   xmlns:osb="http://www.openswatchbook.org/uri/2009/osb"
   xmlns:dc="http://purl.org/dc/elements/1.1/"
   xmlns:cc="http://creativecommons.org/ns#"
   xmlns:rdf="http://www.w3.org/1999/02/22-rdf-syntax-ns#"
   xmlns:svg="http://www.w3.org/2000/svg"
   xmlns="http://www.w3.org/2000/svg"
   xmlns:sodipodi="http://sodipodi.sourceforge.net/DTD/sodipodi-0.dtd"
   xmlns:inkscape="http://www.inkscape.org/namespaces/inkscape"
   inkscape:export-ydpi="90.000000"
   inkscape:export-xdpi="90.000000"
   width="736"
   height="544"
   id="svg11300"
   sodipodi:version="0.32"
   inkscape:version="0.92.2 5c3e80d, 2017-08-06"
   sodipodi:docname="application-x-ms-dos-executable.svg"
   inkscape:output_extension="org.inkscape.output.svg.inkscape"
   version="1.0"
   style="display:inline;enable-background:new"
   inkscape:export-filename="/home/sam/paper-template.png">
  <title
     id="title3004">Paper Icon Theme</title>
  <sodipodi:namedview
     stroke="#ef2929"
     fill="#f57900"
     id="base"
     pagecolor="#474747"
     bordercolor="#666666"
     borderopacity="0.25490196"
     inkscape:pageopacity="0"
     inkscape:pageshadow="2"
     inkscape:zoom="1"
     inkscape:cx="-40.671875"
     inkscape:cy="5.188339"
     inkscape:current-layer="layer7"
     showgrid="false"
     inkscape:grid-bbox="true"
     inkscape:document-units="px"
     inkscape:showpageshadow="false"
     inkscape:window-width="1920"
     inkscape:window-height="1023"
     inkscape:window-x="0"
     inkscape:window-y="27"
     width="400px"
     height="300px"
     inkscape:snap-nodes="true"
     inkscape:snap-bbox="true"
     gridtolerance="10000"
     inkscape:object-nodes="true"
     inkscape:snap-grids="true"
     showguides="true"
     inkscape:guide-bbox="true"
     inkscape:window-maximized="1"
     inkscape:bbox-nodes="true"
     inkscape:snap-bbox-edge-midpoints="true"
     inkscape:snap-bbox-midpoints="true">
    <inkscape:grid
       spacingy="1"
       spacingx="1"
       id="grid5883"
       type="xygrid"
       enabled="true"
       visible="true"
       empspacing="4"
       snapvisiblegridlinesonly="true"
       originx="0"
       originy="0" />
    <inkscape:grid
       type="xygrid"
       id="grid11592"
       empspacing="2"
       visible="true"
       enabled="false"
       spacingx="0.5"
       spacingy="0.5"
       color="#ff0000"
       opacity="0.1254902"
       empcolor="#ff0000"
       empopacity="0.25098039"
       snapvisiblegridlinesonly="true"
       originx="0"
       originy="0" />
  </sodipodi:namedview>
  <defs
     id="defs3">
    <linearGradient
       osb:paint="solid"
       id="linearGradient5606">
      <stop
         style="stop-color:#000000;stop-opacity:1;"
         offset="0"
         id="stop5608" />
    </linearGradient>
    <filter
       inkscape:collect="always"
       style="color-interpolation-filters:sRGB"
       id="filter4415"
       x="-0.024"
       width="1.048"
       y="-0.024"
       height="1.048">
      <feGaussianBlur
         inkscape:collect="always"
         stdDeviation="4.48"
         id="feGaussianBlur4417" />
    </filter>
  </defs>
  <metadata
     id="metadata4">
    <rdf:RDF>
      <cc:Work
         rdf:about="">
        <dc:format>image/svg+xml</dc:format>
        <dc:type
           rdf:resource="http://purl.org/dc/dcmitype/StillImage" />
        <dc:creator>
          <cc:Agent>
            <dc:title>Sam Hewitt</dc:title>
          </cc:Agent>
        </dc:creator>
        <dc:source />
        <cc:license
           rdf:resource="http://creativecommons.org/licenses/by-sa/3.0/" />
        <dc:title>Paper Icon Theme</dc:title>
        <dc:subject>
          <rdf:Bag />
        </dc:subject>
        <dc:date />
        <dc:rights>
          <cc:Agent>
            <dc:title />
          </cc:Agent>
        </dc:rights>
        <dc:publisher>
          <cc:Agent>
            <dc:title />
          </cc:Agent>
        </dc:publisher>
        <dc:identifier />
        <dc:relation />
        <dc:language />
        <dc:coverage />
        <dc:description />
        <dc:contributor>
          <cc:Agent>
            <dc:title />
          </cc:Agent>
        </dc:contributor>
      </cc:Work>
      <cc:Work
         rdf:about="">
        <dc:format>image/svg+xml</dc:format>
        <dc:type
           rdf:resource="http://purl.org/dc/dcmitype/StillImage" />
      </cc:Work>
      <cc:License
         rdf:about="http://creativecommons.org/licenses/by-sa/3.0/">
        <cc:permits
           rdf:resource="http://creativecommons.org/ns#Reproduction" />
        <cc:permits
           rdf:resource="http://creativecommons.org/ns#Distribution" />
        <cc:requires
           rdf:resource="http://creativecommons.org/ns#Notice" />
        <cc:requires
           rdf:resource="http://creativecommons.org/ns#Attribution" />
        <cc:permits
           rdf:resource="http://creativecommons.org/ns#DerivativeWorks" />
        <cc:requires
           rdf:resource="http://creativecommons.org/ns#ShareAlike" />
      </cc:License>
    </rdf:RDF>
  </metadata>
  <g
     style="display:inline"
     inkscape:groupmode="layer"
     inkscape:label="Icon"
     id="layer1"
     transform="translate(0,244)">
    <g
       style="display:none"
       inkscape:label="Baseplate"
       id="layer7"
       inkscape:groupmode="layer">
      <rect
         style="display:inline;overflow:visible;visibility:visible;fill:#e9e9e9;fill-opacity:1;fill-rule:nonzero;stroke:none;stroke-width:2;marker:none;enable-background:accumulate"
         id="rect3951"
         width="512"
         height="512"
         x="-720"
         y="-228"
         inkscape:label="48x48"
         transform="scale(-1,1)" />
      <text
         y="332.48523"
         xml:space="preserve"
         x="15.006836"
         style="font-style:normal;font-variant:normal;font-weight:normal;font-stretch:normal;line-height:0%;font-family:'DejaVu Sans';-inkscape-font-specification:'DejaVu Sans';display:inline;fill:#000000;fill-opacity:1;stroke:none;enable-background:new"
         inkscape:label="context"
         id="context"><tspan
           style="font-style:normal;font-variant:normal;font-weight:normal;font-stretch:normal;font-size:18px;line-height:1.25;font-family:'DejaVu Sans';-inkscape-font-specification:'DejaVu Sans'"
           y="332.48523"
           x="15.006836"
           sodipodi:role="line"
           id="tspan3933">mimetypes</tspan></text>
      <text
         y="332.48523"
         xml:space="preserve"
         x="142.48828"
         style="font-style:normal;font-variant:normal;font-weight:bold;font-stretch:normal;line-height:0%;font-family:'DejaVu Sans';-inkscape-font-specification:'DejaVu Sans Bold';text-align:start;writing-mode:lr-tb;text-anchor:start;display:inline;fill:#000000;fill-opacity:1;stroke:none;enable-background:new"
         inkscape:label="icon-name"
         id="icon-name"><tspan
           style="font-style:normal;font-variant:normal;font-weight:bold;font-stretch:normal;font-size:18px;line-height:1.25;font-family:'DejaVu Sans';-inkscape-font-specification:'DejaVu Sans Bold'"
           y="332.48523"
           x="142.48828"
           sodipodi:role="line"
           id="tspan3937">application-x-ms-dos-executable</tspan></text>
      <rect
         style="display:inline;overflow:visible;visibility:visible;fill:#e9e9e9;fill-opacity:1;fill-rule:nonzero;stroke:none;stroke-width:2;marker:none;enable-background:accumulate"
         id="rect16x16"
         width="16"
         height="16"
         x="-32"
         y="268"
         inkscape:label="16x16"
         transform="scale(-1,1)" />
      <rect
         style="display:inline;overflow:visible;visibility:visible;fill:#e9e9e9;fill-opacity:1;fill-rule:nonzero;stroke:none;stroke-width:2;marker:none;enable-background:accumulate"
         id="rect24x24"
         width="24"
         height="24"
         x="-76"
         y="260"
         inkscape:label="24x24"
         transform="scale(-1,1)" />
      <rect
         style="display:inline;overflow:visible;visibility:visible;fill:#e9e9e9;fill-opacity:1;fill-rule:nonzero;stroke:none;stroke-width:2;marker:none;enable-background:accumulate"
         id="rect32x32"
         width="32"
         height="32"
         x="-128"
         y="252"
         inkscape:label="32x32"
         transform="scale(-1,1)" />
      <rect
         inkscape:label="48x48"
         y="236"
         x="-192"
         height="48"
         width="48"
         id="rect48x48"
         style="display:inline;overflow:visible;visibility:visible;fill:#e9e9e9;fill-opacity:1;fill-rule:nonzero;stroke:none;stroke-width:2;marker:none;enable-background:accumulate"
         transform="scale(-1,1)" />
    </g>
    <g
       inkscape:groupmode="layer"
       id="layer6"
       inkscape:label="Symbols"
       style="display:inline">
      <rect
         transform="matrix(0,-1,-1,0,0,0)"
         style="fill:#000000;fill-opacity:1;stroke:none;opacity:0.2"
         id="rect5127"
         width="448"
         height="448"
         x="-254"
         y="-688"
         rx="36"
         ry="36" />
      <rect
         ry="36"
         rx="36"
         y="-688"
         x="-256"
         height="448"
         width="448"
         id="rect4419"
         style="opacity:0.1;fill:#000000;fill-opacity:1;stroke:none;filter:url(#filter4415)"
         transform="matrix(0,-1,-1,0,0,0)" />
      <rect
         transform="matrix(0,-1,-1,0,0,0)"
         style="opacity:0.2;fill:#000000;fill-opacity:1;stroke:none;filter:url(#filter4415)"
         id="rect4413"
         width="448"
         height="448"
         x="-256"
         y="-688"
         rx="36"
         ry="36" />
      <rect
         transform="matrix(0,-1,-1,0,0,0)"
         style="opacity:0.2;fill:#000000;fill-opacity:1;stroke:none"
         id="rect4386"
         width="20"
         height="20"
         x="-283"
         y="-74"
         rx="2"
         ry="2" />
      <rect
         ry="3"
         rx="3"
         y="-188"
         x="-281"
         height="40"
         width="40"
         id="rect4388"
         style="opacity:0.2;fill:#000000;fill-opacity:1;stroke:none"
         transform="matrix(0,-1,-1,0,0,0)" />
      <rect
         ry="3"
         rx="3"
         y="-126"
         x="-283"
         height="28"
         width="28"
         id="rect4390"
         style="opacity:0.2;fill:#000000;fill-opacity:1;stroke:none"
         transform="matrix(0,-1,-1,0,0,0)" />
      <rect
         ry="2"
         rx="2"
         y="-74"
         x="-282"
         height="20"
         width="20"
         id="rect4243"
         style="fill:#607d8b;fill-opacity:1;stroke:none"
         transform="matrix(0,-1,-1,0,0,0)" />
      <rect
         transform="matrix(0,-1,-1,0,0,0)"
         style="fill:#607d8b;fill-opacity:1;stroke:none"
         id="rect4203"
         width="40"
         height="40"
         x="-280"
         y="-188"
         rx="3"
         ry="3" />
      <rect
         transform="matrix(0,-1,-1,0,0,0)"
         style="fill:#607d8b;fill-opacity:1;stroke:none"
         id="rect4255"
         width="28"
         height="28"
         x="-282"
         y="-126"
         rx="3"
         ry="3" />
      <rect
         transform="matrix(0,-1,-1,0,0,0)"
         style="display:inline;fill:#607d8b;fill-opacity:1;stroke:none;enable-background:new"
         id="rect4265"
         width="16"
         height="16"
         x="-284"
         y="-32"
         rx="2"
         ry="2" />
      <g
         id="layer1-2"
         inkscape:label="places"
         style="display:inline"
         transform="translate(186.5001,-174.5)" />
      <g
         id="layer14"
         inkscape:label="mimetypes"
         style="display:inline"
         transform="translate(-54.5001,442.5)" />
      <g
         id="layer15"
         inkscape:label="emblems"
         style="display:inline"
         transform="translate(-54.5001,442.5)" />
      <g
         id="g71291"
         inkscape:label="emotes"
         style="display:inline"
         transform="translate(-54.5001,442.5)" />
      <g
         id="layer2"
         inkscape:label="categories"
         style="display:inline"
         transform="translate(186.5001,-24.5)" />
      <g
         id="g6058"
         inkscape:label="apps"
         style="display:inline"
         transform="translate(186.5001,-24.5)" />
      <g
         id="layer12"
         inkscape:label="actions"
         style="display:inline"
         transform="translate(-54.5001,442.5)" />
      <rect
         ry="36"
         rx="36"
         y="-688"
         x="-252"
         height="448"
         width="448"
         id="rect4229"
         style="fill:#607d8b;fill-opacity:1;stroke:none"
         transform="matrix(0,-1,-1,0,0,0)" />
      <path
         style="opacity:0.2;fill:#ffffff;fill-opacity:1;stroke:none"
         d="m 276,48 c -19.944,0 -36,16.056 -36,36 l 0,2 c 0,-19.944 16.056,-36 36,-36 l 376,0 c 19.944,0 36,16.056 36,36 l 0,-2 C 688,64.056 671.944,48 652,48 l -376,0 z"
         transform="translate(0,-244)"
         id="rect4421"
         inkscape:connector-curvature="0" />
      <path
         style="opacity:0.2;fill:#ffffff;fill-opacity:1;stroke:none"
         d="m 56,506 c -1.108,0 -2,0.892 -2,2 l 0,1 c 0,-1.108 0.892,-2 2,-2 l 16,0 c 1.108,0 2,0.892 2,2 l 0,-1 c 0,-1.108 -0.892,-2 -2,-2 l -16,0 z"
         transform="translate(0,-244)"
         id="rect4426"
         inkscape:connector-curvature="0" />
      <path
         style="opacity:0.2;fill:#ffffff;fill-opacity:1;stroke:none"
         d="m 151,484 c -1.662,0 -3,1.338 -3,3 l 0,1 c 0,-1.662 1.338,-3 3,-3 l 34,0 c 1.662,0 3,1.338 3,3 l 0,-1 c 0,-1.662 -1.338,-3 -3,-3 l -34,0 z"
         transform="translate(0,-244)"
         id="rect4428"
         inkscape:connector-curvature="0" />
      <path
         style="opacity:0.2;fill:#ffffff;fill-opacity:1;stroke:none"
         d="m 101,498 c -1.662,0 -3,1.338 -3,3 l 0,1 c 0,-1.662 1.338,-3 3,-3 l 22,0 c 1.662,0 3,1.338 3,3 l 0,-1 c 0,-1.662 -1.338,-3 -3,-3 l -22,0 z"
         transform="translate(0,-244)"
         id="rect4430"
         inkscape:connector-curvature="0" />
    </g>
    <g
       inkscape:groupmode="layer"
       id="layer3"
       inkscape:label="Pictogram">
      <path
         id="path4377"
         d="m 423.95537,-131 -3.52344,42.14453 a 125.71429,125.71429 0 0 0 -36.74608,21.25 l -38.30275,-18.03906 -40,69.28906 34.7793,24.14844 A 125.71429,125.71429 0 0 0 338.23858,29 125.71429,125.71429 0 0 0 340.0706,50.29297 l -34.6875,24.0625 40,69.28906 38.2168,-17.99023 a 125.71429,125.71429 0 0 0 36.82617,21.11523 l 3.5293,42.23047 80,0 3.52346,-42.14453 a 125.71429,125.71429 0 0 0 36.74608,-21.25 l 38.30273,18.03906 40,-69.28906 -34.7793,-24.14844 A 125.71429,125.71429 0 0 0 589.67219,29 125.71429,125.71429 0 0 0 587.84014,7.70703 l 34.6875,-24.0625 -40,-69.28906 -38.2168,17.99023 A 125.71429,125.71429 0 0 0 507.48469,-88.76953 L 503.95537,-131 l -80,0 z m 40,96 a 64,64 0 0 1 64,64 64,64 0 0 1 -64,64 64,64 0 0 1 -64,-64 64,64 0 0 1 64,-64 z"
         style="display:inline;opacity:1;fill:#90a4ae;fill-opacity:1;stroke:none;stroke-opacity:1;enable-background:new"
         inkscape:connector-curvature="0" />
      <path
         inkscape:connector-curvature="0"
         style="display:inline;opacity:1;fill:#90a4ae;fill-opacity:1;stroke:none;stroke-opacity:1;enable-background:new"
         d="m 164.45539,247 -0.30838,3.68761 a 11,11 0 0 0 -3.21517,1.85937 l -3.35151,-1.57834 -3.5,6.06272 3.04313,2.11306 A 11,11 0 0 0 156.95522,261 a 11,11 0 0 0 0.16027,1.86317 l -3.03516,2.10547 3.5,6.06272 3.34391,-1.57417 a 11,11 0 0 0 3.22237,1.84761 l 0.30879,3.6952 6.99999,0 0.30837,-3.68761 a 11,11 0 0 0 3.21518,-1.85937 l 3.35149,1.57834 3.5,-6.06272 -3.04312,-2.11307 A 11,11 0 0 0 178.95555,261 11,11 0 0 0 178.7953,259.13682 l 3.03514,-2.10546 -3.5,-6.06272 -3.34391,1.57416 a 11,11 0 0 0 -3.22238,-1.8476 L 171.45538,247 l -7,0 z m 3.5,9.33333 A 4.6666666,4.6666666 0 0 1 172.62205,261 4.6666666,4.6666666 0 0 1 167.95539,265.66667 4.6666666,4.6666666 0 0 1 163.28871,261 a 4.6666666,4.6666666 0 0 1 4.66668,-4.66667 z"
         id="path4379" />
      <path
         id="path4381"
         d="m 109.7054,260 -0.19824,2.37061 a 7.0714286,7.0714286 0 0 0 -2.06689,1.19531 l -2.15455,-1.01465 -2.25,3.89746 1.95628,1.3584 A 7.0714286,7.0714286 0 0 0 104.88385,269 a 7.0714286,7.0714286 0 0 0 0.10303,1.19776 l -1.95117,1.35351 2.25,3.89746 2.14966,-1.01196 a 7.0714286,7.0714286 0 0 0 2.07152,1.18774 l 0.1985,2.37549 4.5,0 0.19823,-2.37061 a 7.0714286,7.0714286 0 0 0 2.0669,-1.19531 l 2.15454,1.01465 2.24999,-3.89746 -1.95628,-1.3584 A 7.0714286,7.0714286 0 0 0 119.02691,269 7.0714286,7.0714286 0 0 0 118.9239,267.80224 l 1.95115,-1.35351 -2.24999,-3.89746 -2.14965,1.01196 a 7.0714286,7.0714286 0 0 0 -2.07153,-1.18774 L 114.2054,260 l -4.5,0 z m 2.25,5.99999 a 3,3 0 0 1 3,3.00001 3,3 0 0 1 -3,3.00001 3,3 0 0 1 -3.00001,-3.00001 3,3 0 0 1 3.00001,-3.00001 z"
         style="display:inline;opacity:1;fill:#90a4ae;fill-opacity:1;stroke:none;stroke-opacity:1;enable-background:new"
         inkscape:connector-curvature="0" />
      <path
         inkscape:connector-curvature="0"
         style="display:inline;opacity:1;fill:#90a4ae;fill-opacity:1;stroke:none;stroke-opacity:1;enable-background:new"
         d="m 62.205413,266 -0.15419,1.84381 a 5.5,5.5 0 0 0 -1.60758,0.92968 l -1.67576,-0.78917 -1.75,3.03136 1.52155,1.05653 a 5.5,5.5 0 0 0 -0.0841,0.92779 5.5,5.5 0 0 0 0.0801,0.93159 l -1.51758,1.05273 1.75,3.03136 1.67196,-0.78708 a 5.5,5.5 0 0 0 1.61118,0.9238 l 0.15439,1.8476 3.5,0 0.15418,-1.84381 a 5.5,5.5 0 0 0 1.607592,-0.92968 l 1.67575,0.78917 1.75,-3.03136 -1.52156,-1.05653 a 5.5,5.5 0 0 0 0.0841,-0.92779 5.5,5.5 0 0 0 -0.0801,-0.93159 l 1.51757,-1.05273 -1.75,-3.03136 -1.67195,0.78708 a 5.5,5.5 0 0 0 -1.611192,-0.9238 L 65.705413,266 l -3.5,0 z m 1.75,4.66666 A 2.3333333,2.3333333 0 0 1 66.288743,273 2.3333333,2.3333333 0 0 1 63.955413,275.33334 2.3333333,2.3333333 0 0 1 61.622073,273 a 2.3333333,2.3333333 0 0 1 2.33334,-2.33334 z"
         id="path4383" />
      <path
         inkscape:connector-curvature="0"
         style="display:inline;enable-background:new;opacity:1;fill:#455a64;fill-opacity:1;stroke:none;stroke-opacity:1"
         d="m 423.95537,-132 -3.52344,42.14453 a 125.71429,125.71429 0 0 0 -36.74608,21.25 l -38.30275,-18.03906 -40,69.28906 34.7793,24.14844 A 125.71429,125.71429 0 0 0 338.23858,28 125.71429,125.71429 0 0 0 340.0706,49.29297 l -34.6875,24.0625 40,69.28906 38.2168,-17.99023 a 125.71429,125.71429 0 0 0 36.82617,21.11523 l 3.5293,42.23047 80,0 3.52346,-42.14453 a 125.71429,125.71429 0 0 0 36.74608,-21.25 l 38.30273,18.03906 40,-69.28906 -34.7793,-24.14844 A 125.71429,125.71429 0 0 0 589.67219,28 125.71429,125.71429 0 0 0 587.84014,6.70703 l 34.6875,-24.0625 -40,-69.28906 -38.2168,17.99023 A 125.71429,125.71429 0 0 0 507.48469,-89.76953 L 503.95537,-132 l -80,0 z m 40,96 a 64,64 0 0 1 64,64 64,64 0 0 1 -64,64 64,64 0 0 1 -64,-64 64,64 0 0 1 64,-64 z"
         id="path10500" />
      <path
         id="path4458"
         d="m 164.45539,246 -0.30838,3.68761 a 11,11 0 0 0 -3.21517,1.85937 l -3.35151,-1.57834 -3.5,6.06272 3.04313,2.11306 A 11,11 0 0 0 156.95522,260 a 11,11 0 0 0 0.16027,1.86317 l -3.03516,2.10547 3.5,6.06272 3.34391,-1.57417 a 11,11 0 0 0 3.22237,1.84761 l 0.30879,3.6952 6.99999,0 0.30837,-3.68761 a 11,11 0 0 0 3.21518,-1.85937 l 3.35149,1.57834 3.5,-6.06272 -3.04312,-2.11307 A 11,11 0 0 0 178.95555,260 11,11 0 0 0 178.7953,258.13682 l 3.03514,-2.10546 -3.5,-6.06272 -3.34391,1.57416 a 11,11 0 0 0 -3.22238,-1.8476 L 171.45538,246 l -7,0 z m 3.5,9.33333 A 4.6666666,4.6666666 0 0 1 172.62205,260 4.6666666,4.6666666 0 0 1 167.95539,264.66667 4.6666666,4.6666666 0 0 1 163.28871,260 a 4.6666666,4.6666666 0 0 1 4.66668,-4.66667 z"
         style="display:inline;enable-background:new;opacity:1;fill:#455a64;fill-opacity:1;stroke:none;stroke-opacity:1"
         inkscape:connector-curvature="0" />
      <path
         inkscape:connector-curvature="0"
         style="display:inline;enable-background:new;opacity:1;fill:#455a64;fill-opacity:1;stroke:none;stroke-opacity:1"
         d="m 109.7054,259 -0.19824,2.37061 a 7.0714286,7.0714286 0 0 0 -2.06689,1.19531 l -2.15455,-1.01465 -2.25,3.89746 1.95628,1.3584 A 7.0714286,7.0714286 0 0 0 104.88385,268 a 7.0714286,7.0714286 0 0 0 0.10303,1.19776 l -1.95117,1.35351 2.25,3.89746 2.14966,-1.01196 a 7.0714286,7.0714286 0 0 0 2.07152,1.18774 l 0.1985,2.37549 4.5,0 0.19823,-2.37061 a 7.0714286,7.0714286 0 0 0 2.0669,-1.19531 l 2.15454,1.01465 2.24999,-3.89746 -1.95628,-1.3584 A 7.0714286,7.0714286 0 0 0 119.02691,268 7.0714286,7.0714286 0 0 0 118.9239,266.80224 l 1.95115,-1.35351 -2.24999,-3.89746 -2.14965,1.01196 a 7.0714286,7.0714286 0 0 0 -2.07153,-1.18774 L 114.2054,259 l -4.5,0 z m 2.25,5.99999 a 3,3 0 0 1 3,3.00001 3,3 0 0 1 -3,3.00001 3,3 0 0 1 -3.00001,-3.00001 3,3 0 0 1 3.00001,-3.00001 z"
         id="path4475" />
      <path
         id="path4477"
         d="m 62.205413,265 -0.15419,1.84381 a 5.5,5.5 0 0 0 -1.60758,0.92968 l -1.67576,-0.78917 -1.75,3.03136 1.52155,1.05653 a 5.5,5.5 0 0 0 -0.0841,0.92779 5.5,5.5 0 0 0 0.0801,0.93159 l -1.51758,1.05273 1.75,3.03136 1.67196,-0.78708 a 5.5,5.5 0 0 0 1.61118,0.9238 l 0.15439,1.8476 3.5,0 0.15418,-1.84381 a 5.5,5.5 0 0 0 1.607592,-0.92968 l 1.67575,0.78917 1.75,-3.03136 -1.52156,-1.05653 a 5.5,5.5 0 0 0 0.0841,-0.92779 5.5,5.5 0 0 0 -0.0801,-0.93159 l 1.51757,-1.05273 -1.75,-3.03136 -1.67195,0.78708 a 5.5,5.5 0 0 0 -1.611192,-0.9238 L 65.705413,265 l -3.5,0 z m 1.75,4.66666 A 2.3333333,2.3333333 0 0 1 66.288743,272 2.3333333,2.3333333 0 0 1 63.955413,274.33334 2.3333333,2.3333333 0 0 1 61.622073,272 a 2.3333333,2.3333333 0 0 1 2.33334,-2.33334 z"
         style="display:inline;enable-background:new;opacity:1;fill:#455a64;fill-opacity:1;stroke:none;stroke-opacity:1"
         inkscape:connector-curvature="0" />
      <path
         inkscape:connector-curvature="0"
         style="display:inline;enable-background:new;opacity:1;fill:#455a64;fill-opacity:1;stroke:none;stroke-opacity:1"
         d="m 22.705404,271 -0.110137,1.31701 a 3.9285714,3.9285714 0 0 0 -1.148271,0.66405 l -1.196972,-0.56368 -1.25,2.16524 1.086822,0.75467 A 3.9285714,3.9285714 0 0 0 20.026776,276 a 3.9285714,3.9285714 0 0 0 0.05721,0.66542 L 19,277.41737 l 1.25,2.16525 1.194256,-0.5622 a 3.9285714,3.9285714 0 0 0 1.150843,0.65987 L 22.705376,281 l 2.5,0 0.110125,-1.31701 a 3.9285714,3.9285714 0 0 0 1.148278,-0.66405 l 1.196964,0.56368 1.25,-2.16525 -1.086829,-0.75466 A 3.9285714,3.9285714 0 0 0 27.883994,276 a 3.9285714,3.9285714 0 0 0 -0.05721,-0.66542 l 1.083979,-0.75196 -1.25,-2.16524 -1.19425,0.5622 a 3.9285714,3.9285714 0 0 0 -1.15085,-0.65987 L 25.205404,271 l -2.5,0 z m 1.25,3.33332 A 1.6666666,1.6666666 0 0 1 25.622068,276 1.6666666,1.6666666 0 0 1 23.955404,277.66668 1.6666666,1.6666666 0 0 1 22.288733,276 a 1.6666666,1.6666666 0 0 1 1.666671,-1.66668 z"
         id="path4479" />
    </g>
  </g>
</svg>
