<?xml version="1.0" encoding="UTF-8" standalone="no"?>
<!-- Created with Inkscape (http://www.inkscape.org/) -->

<svg
   xmlns:osb="http://www.openswatchbook.org/uri/2009/osb"
   xmlns:dc="http://purl.org/dc/elements/1.1/"
   xmlns:cc="http://creativecommons.org/ns#"
   xmlns:rdf="http://www.w3.org/1999/02/22-rdf-syntax-ns#"
   xmlns:svg="http://www.w3.org/2000/svg"
   xmlns="http://www.w3.org/2000/svg"
   xmlns:sodipodi="http://sodipodi.sourceforge.net/DTD/sodipodi-0.dtd"
   xmlns:inkscape="http://www.inkscape.org/namespaces/inkscape"
   inkscape:export-ydpi="90.000000"
   inkscape:export-xdpi="90.000000"
   width="736"
   height="544"
   id="svg11300"
   sodipodi:version="0.32"
   inkscape:version="0.92.2 5c3e80d, 2017-08-06"
   sodipodi:docname="megasync.svg"
   inkscape:output_extension="org.inkscape.output.svg.inkscape"
   version="1.0"
   style="display:inline;enable-background:new"
   inkscape:export-filename="/home/sam/paper-template.png">
  <title
     id="title3004">Paper Icon Theme</title>
  <sodipodi:namedview
     stroke="#ef2929"
     fill="#f57900"
     id="base"
     pagecolor="#656565"
     bordercolor="#666666"
     borderopacity="0.25490196"
     inkscape:pageopacity="0"
     inkscape:pageshadow="2"
     inkscape:zoom="1"
     inkscape:cx="196.39502"
     inkscape:cy="106.22774"
     inkscape:current-layer="layer6"
     showgrid="false"
     inkscape:grid-bbox="true"
     inkscape:document-units="px"
     inkscape:showpageshadow="false"
     inkscape:window-width="1301"
     inkscape:window-height="744"
     inkscape:window-x="65"
     inkscape:window-y="24"
     width="400px"
     height="300px"
     inkscape:snap-nodes="true"
     inkscape:snap-bbox="true"
     gridtolerance="10000"
     inkscape:object-nodes="true"
     inkscape:snap-grids="true"
     showguides="true"
     inkscape:guide-bbox="true"
     inkscape:window-maximized="1"
     inkscape:snap-bbox-edge-midpoints="true"
     inkscape:bbox-nodes="true"
     inkscape:snap-bbox-midpoints="true"
     inkscape:object-paths="true"
     inkscape:snap-intersection-paths="true"
     inkscape:snap-smooth-nodes="true"
     inkscape:snap-midpoints="true">
    <inkscape:grid
       spacingy="1"
       spacingx="1"
       id="grid5883"
       type="xygrid"
       enabled="true"
       visible="true"
       empspacing="4"
       snapvisiblegridlinesonly="true"
       originx="0"
       originy="0" />
    <inkscape:grid
       type="xygrid"
       id="grid11592"
       empspacing="2"
       visible="true"
       enabled="false"
       spacingx="0.5"
       spacingy="0.5"
       color="#ff0000"
       opacity="0.1254902"
       empcolor="#ff0000"
       empopacity="0.25098039"
       snapvisiblegridlinesonly="true"
       originx="0"
       originy="0" />
  </sodipodi:namedview>
  <defs
     id="defs3">
    <linearGradient
       osb:paint="solid"
       id="linearGradient5606">
      <stop
         id="stop5608" />
    </linearGradient>
    <filter
       inkscape:collect="always"
       style="color-interpolation-filters:sRGB"
       id="filter4547"
       x="-0.024"
       width="1.048"
       y="-0.024"
       height="1.048">
      <feGaussianBlur
         inkscape:collect="always"
         stdDeviation="4.48"
         id="feGaussianBlur4549" />
    </filter>
  </defs>
  <metadata
     id="metadata4">
    <rdf:RDF>
      <cc:Work
         rdf:about="">
        <dc:format>image/svg+xml</dc:format>
        <dc:type
           rdf:resource="http://purl.org/dc/dcmitype/StillImage" />
        <dc:creator>
          <cc:Agent>
            <dc:title>Sam Hewitt</dc:title>
          </cc:Agent>
        </dc:creator>
        <dc:source />
        <cc:license
           rdf:resource="http://creativecommons.org/licenses/by-sa/3.0/" />
        <dc:title>Paper Icon Theme</dc:title>
        <dc:subject>
          <rdf:Bag />
        </dc:subject>
        <dc:date />
        <dc:rights>
          <cc:Agent>
            <dc:title />
          </cc:Agent>
        </dc:rights>
        <dc:publisher>
          <cc:Agent>
            <dc:title />
          </cc:Agent>
        </dc:publisher>
        <dc:identifier />
        <dc:relation />
        <dc:language />
        <dc:coverage />
        <dc:description />
        <dc:contributor>
          <cc:Agent>
            <dc:title />
          </cc:Agent>
        </dc:contributor>
      </cc:Work>
      <cc:Work
         rdf:about="">
        <dc:format>image/svg+xml</dc:format>
        <dc:type
           rdf:resource="http://purl.org/dc/dcmitype/StillImage" />
      </cc:Work>
      <cc:License
         rdf:about="http://creativecommons.org/licenses/by-sa/3.0/">
        <cc:permits
           rdf:resource="http://creativecommons.org/ns#Reproduction" />
        <cc:permits
           rdf:resource="http://creativecommons.org/ns#Distribution" />
        <cc:requires
           rdf:resource="http://creativecommons.org/ns#Notice" />
        <cc:requires
           rdf:resource="http://creativecommons.org/ns#Attribution" />
        <cc:permits
           rdf:resource="http://creativecommons.org/ns#DerivativeWorks" />
        <cc:requires
           rdf:resource="http://creativecommons.org/ns#ShareAlike" />
      </cc:License>
    </rdf:RDF>
  </metadata>
  <g
     style="display:inline"
     inkscape:groupmode="layer"
     inkscape:label="Icon"
     id="layer1"
     transform="translate(0,244)">
    <g
       style="display:none"
       inkscape:label="Baseplate"
       id="layer7"
       inkscape:groupmode="layer">
      <text
         y="319.74512"
         xml:space="preserve"
         x="15.006836"
         style="font-style:normal;font-variant:normal;font-weight:normal;font-stretch:normal;line-height:0%;font-family:'DejaVu Sans';-inkscape-font-specification:'DejaVu Sans';display:inline;fill:#000000;fill-opacity:1;stroke:none;enable-background:new"
         inkscape:label="context"
         id="context"><tspan
           style="font-style:normal;font-variant:normal;font-weight:normal;font-stretch:normal;font-size:18px;line-height:1.25;font-family:'DejaVu Sans';-inkscape-font-specification:'DejaVu Sans'"
           y="319.74512"
           x="15.006836"
           sodipodi:role="line"
           id="tspan4240">apps</tspan></text>
      <text
         y="319.74512"
         xml:space="preserve"
         x="142.48828"
         style="font-style:normal;font-variant:normal;font-weight:bold;font-stretch:normal;line-height:0%;font-family:'DejaVu Sans';-inkscape-font-specification:'DejaVu Sans Bold';text-align:start;writing-mode:lr-tb;text-anchor:start;display:inline;fill:#000000;fill-opacity:1;stroke:none;enable-background:new"
         inkscape:label="icon-name"
         id="icon-name"><tspan
           style="font-style:normal;font-variant:normal;font-weight:bold;font-stretch:normal;font-size:18px;line-height:1.25;font-family:'DejaVu Sans';-inkscape-font-specification:'DejaVu Sans Bold'"
           y="319.74512"
           x="142.48828"
           sodipodi:role="line"
           id="tspan3937">megasync</tspan></text>
      <rect
         style="display:inline;overflow:visible;visibility:visible;fill:#e9e9e9;fill-opacity:1;fill-rule:nonzero;stroke:none;stroke-width:2;marker:none;enable-background:accumulate"
         id="rect16x16"
         width="16"
         height="16"
         x="-32"
         y="268"
         inkscape:label="16x16"
         transform="scale(-1,1)" />
      <rect
         style="display:inline;overflow:visible;visibility:visible;fill:#e9e9e9;fill-opacity:1;fill-rule:nonzero;stroke:none;stroke-width:2;marker:none;enable-background:accumulate"
         id="rect24x24"
         width="24"
         height="24"
         x="-76"
         y="260"
         inkscape:label="24x24"
         transform="scale(-1,1)" />
      <rect
         style="display:inline;overflow:visible;visibility:visible;fill:#e9e9e9;fill-opacity:1;fill-rule:nonzero;stroke:none;stroke-width:2;marker:none;enable-background:accumulate"
         id="rect32x32"
         width="32"
         height="32"
         x="-128"
         y="252"
         inkscape:label="32x32"
         transform="scale(-1,1)" />
      <rect
         inkscape:label="48x48"
         y="236"
         x="-192"
         height="48"
         width="48"
         id="rect48x48"
         style="display:inline;overflow:visible;visibility:visible;fill:#e9e9e9;fill-opacity:1;fill-rule:nonzero;stroke:none;stroke-width:2;marker:none;enable-background:accumulate"
         transform="scale(-1,1)" />
      <rect
         style="display:inline;overflow:visible;visibility:visible;fill:#e9e9e9;fill-opacity:1;fill-rule:nonzero;stroke:none;stroke-width:2;marker:none;enable-background:accumulate"
         id="rect3951"
         width="512"
         height="512"
         x="-720"
         y="-228"
         inkscape:label="48x48"
         transform="scale(-1,1)" />
    </g>
    <g
       inkscape:groupmode="layer"
       id="layer6"
       inkscape:label="Symbols"
       style="display:inline">
      <rect
         ry="15"
         rx="15"
         y="-127"
         x="-284"
         height="30"
         width="30"
         id="rect4804"
         style="fill:#000000;fill-opacity:1;stroke:none;opacity:0.2"
         transform="matrix(0,-1,-1,0,0,0)" />
      <rect
         ry="15"
         rx="15"
         y="-127.00003"
         x="-283"
         height="30"
         width="30"
         id="rect4563"
         style="fill:#d32f2f;fill-opacity:1;stroke:none"
         transform="matrix(0,-1,-1,0,0,0)" />
      <rect
         transform="matrix(0,-1,-1,0,0,0)"
         style="opacity:0.1;fill:#000000;fill-opacity:1;stroke:#000000;stroke-width:8;stroke-miterlimit:4;stroke-dasharray:none;stroke-opacity:1;filter:url(#filter4547)"
         id="rect4551"
         width="448"
         height="448"
         x="-256"
         y="-688"
         rx="224"
         ry="224" />
      <rect
         ry="224"
         rx="224"
         y="-688"
         x="-256"
         height="448"
         width="448"
         id="rect4463"
         style="opacity:0.2;fill:#000000;fill-opacity:1;stroke:none;filter:url(#filter4547)"
         transform="matrix(0,-1,-1,0,0,0)" />
      <rect
         ry="20"
         rx="20"
         y="-180"
         x="-280"
         height="40"
         width="40"
         id="rect4209"
         style="opacity:0.2;fill:#000000;fill-opacity:1;stroke:none"
         transform="matrix(0,-1,-1,0,8,1)" />
      <rect
         transform="matrix(0,-1,-1,0,0,0)"
         style="fill:#000000;fill-opacity:1;stroke:none;opacity:0.2"
         id="rect4826"
         width="22"
         height="22"
         x="-284"
         y="-75"
         rx="11"
         ry="11" />
      <rect
         ry="11"
         rx="11"
         y="-75"
         x="-283"
         height="22"
         width="22"
         id="rect4243"
         style="fill:#d32f2f;fill-opacity:1;stroke:none"
         transform="matrix(0,-1,-1,0,0,0)" />
      <rect
         transform="matrix(0,-1,-1,0,0,0)"
         style="display:inline;fill:#d32f2f;fill-opacity:1;stroke:none;enable-background:new"
         id="rect4265"
         width="16"
         height="16"
         x="-284"
         y="-32"
         rx="8"
         ry="8" />
      <path
         id="path4455"
         d="M 464,252 C 339.904,252 240,152.096 240,28 c 0,-0.67412 0.003,-1.33633 0,-2 0,124.096 99.904,224 224,224 124.096,0 224,-99.904 224,-224 -0.003,0.66367 0,1.32588 0,2 0,124.096 -99.904,224 -224,224 z"
         style="opacity:0.2;fill:#000000;fill-opacity:1;stroke:none"
         inkscape:connector-curvature="0" />
      <rect
         ry="20"
         rx="20"
         y="-187.99998"
         x="-280"
         height="40"
         width="40"
         id="rect4549"
         style="fill:#d32f2f;fill-opacity:1;stroke:none"
         transform="matrix(0,-1,-1,0,0,0)" />
      <path
         style="opacity:0.1;fill:#ffffff;fill-opacity:1;stroke:none"
         d="m 168,240 c -11.08,0 -20,8.92 -20,20 0,0.16772 -0.004,0.33329 0,0.5 0.26444,-10.84635 9.08772,-19.5 20,-19.5 10.91228,0 19.73556,8.65365 20,19.5 0.004,-0.16671 0,-0.33228 0,-0.5 0,-11.08 -8.92,-20 -20,-20 z"
         id="rect3436"
         inkscape:connector-curvature="0" />
      <path
         style="fill:#ffffff;fill-opacity:1;stroke:none;opacity:0.2"
         d="M 112 497 C 103.69 497 97 503.69 97 512 C 97 512.16894 97.019903 512.33244 97.025391 512.5 C 97.289827 504.42553 103.85894 498 112 498 C 120.14106 498 126.71017 504.42553 126.97461 512.5 C 126.9801 512.33244 127 512.16894 127 512 C 127 503.69 120.31 497 112 497 z "
         transform="translate(0,-244)"
         id="rect4475" />
      <rect
         transform="matrix(0,-1,-1,0,0,0)"
         style="fill:#d32f2f;fill-opacity:1;stroke:none"
         id="rect4523"
         width="448"
         height="448"
         x="-252.00002"
         y="-688"
         rx="224"
         ry="224" />
      <path
         style="fill:#ffffff;fill-opacity:1;stroke:none;opacity:0.2"
         d="M 464 48 C 339.904 48 240 147.904 240 272 C 240 272.33437 240.01027 272.66598 240.01172 273 C 240.5481 149.36894 340.23837 50 464 50 C 587.76163 50 687.4519 149.36894 687.98828 273 C 687.98973 272.66598 688 272.33437 688 272 C 688 147.904 588.096 48 464 48 z "
         id="rect4544"
         transform="translate(0,-244)" />
      <path
         style="fill:#ffffff;fill-opacity:1;stroke:none;opacity:0.2"
         d="M 64 505 C 57.906 505 53 509.906 53 516 C 53 516.16899 53.017925 516.33292 53.025391 516.5 C 53.287156 510.64183 58.074989 506 64 506 C 69.925011 506 74.712844 510.64183 74.974609 516.5 C 74.982075 516.33292 75 516.16899 75 516 C 75 509.906 70.094 505 64 505 z "
         transform="translate(0,-244)"
         id="rect4431" />
      <path
         style="display:inline;fill:#ffffff;fill-opacity:1;stroke:none;enable-background:new;opacity:0.2"
         d="M 24 512 C 19.568 512 16 515.568 16 520 C 16 520.16884 16.015183 520.33381 16.025391 520.5 C 16.283117 516.30394 19.736845 513 24 513 C 28.263155 513 31.716883 516.30394 31.974609 520.5 C 31.984817 520.33381 32 520.16884 32 520 C 32 515.568 28.432 512 24 512 z "
         transform="translate(0,-244)"
         id="rect4436" />
      <path
         id="path4445"
         d="M 464,252 C 339.904,252 240,152.096 240,28 c 0,-0.33437 0.0103,-0.66598 0.0117,-1 0.5364,123.63106 100.22667,223 223.9883,223 123.76163,0 223.4519,-99.36894 223.98828,-223 10e-4,0.33402 0.0117,0.66563 0.0117,1 0,124.096 -99.904,224 -224,224 z"
         style="opacity:0.1;fill:#000000;fill-opacity:1;stroke:none"
         inkscape:connector-curvature="0" />
      <path
         style="display:inline;fill:#ffffff;fill-opacity:1;fill-rule:evenodd;stroke:none;stroke-width:2.06291056px;stroke-linecap:butt;stroke-linejoin:miter;stroke-opacity:1;enable-background:new"
         d="M 385.69697,123.00002 V 15.60871 l 65.9394,66.086955 h 24.72726 L 542.30303,15.60871 V 123.00002 H 600 V -66.999985 H 542.30303 L 464,17.673928 385.69697,-66.999985 H 328 V 123.00002 Z"
         id="path4374"
         inkscape:connector-curvature="0"
         sodipodi:nodetypes="cccccccccccccc" />
      <path
         style="display:inline;fill:#ffffff;fill-opacity:1;fill-rule:evenodd;stroke:none;stroke-width:0.17407759px;stroke-linecap:butt;stroke-linejoin:miter;stroke-opacity:1;enable-background:new"
         d="m 161.37877,268 v -9.04347 l 5.57576,5.5652 h 2.09091 l 5.57575,-5.5652 V 268 h 4.87879 v -16 h -4.87879 l -6.62121,7.13043 L 161.37877,252 h -4.87879 v 15.99999 z"
         id="path4374-6"
         inkscape:connector-curvature="0"
         sodipodi:nodetypes="cccccccccccccc" />
      <path
         style="display:inline;fill:#ffffff;fill-opacity:1;fill-rule:evenodd;stroke:none;stroke-width:0.13636366px;stroke-linecap:butt;stroke-linejoin:miter;stroke-opacity:1;enable-background:new"
         d="m 106.81821,274.27272 v -7.0909 l 4.36364,4.36363 h 1.63637 l 4.36363,-4.36363 v 7.0909 h 3.81818 v -12.54545 h -3.81818 l -5.18182,5.59091 -5.18182,-5.59091 h -3.81818 v 12.54545 z"
         id="path4374-6-7"
         inkscape:connector-curvature="0"
         sodipodi:nodetypes="cccccccccccccc" />
      <path
         style="display:inline;fill:#ffffff;fill-opacity:1;fill-rule:evenodd;stroke:none;stroke-width:0.08333334px;stroke-linecap:butt;stroke-linejoin:miter;stroke-opacity:1;enable-background:new"
         d="M 60.833333,275.83333 V 271.5 L 63.5,274.16667 h 1 L 67.166666,271.5 v 4.33333 H 69.5 v -7.66667 H 67.166666 L 64,271.58333 60.833333,268.16666 H 58.5 v 7.66667 z"
         id="path4374-6-5"
         inkscape:connector-curvature="0"
         sodipodi:nodetypes="cccccccccccccc" />
      <path
         style="display:inline;fill:#ffffff;fill-opacity:1;fill-rule:evenodd;stroke:none;stroke-width:0.06818183px;stroke-linecap:butt;stroke-linejoin:miter;stroke-opacity:1;enable-background:new"
         d="m 21.409091,279.63636 v -3.54545 l 2.181818,2.18182 h 0.818182 l 2.181817,-2.18182 v 3.54545 H 28.5 v -6.27272 H 26.590908 L 24,276.15909 21.409091,273.36364 H 19.5 v 6.27272 z"
         id="path4374-6-3"
         inkscape:connector-curvature="0"
         sodipodi:nodetypes="cccccccccccccc" />
    </g>
  </g>
</svg>
