<?xml version="1.0" encoding="UTF-8" standalone="no"?>
<!-- Created with Inkscape (http://www.inkscape.org/) -->

<svg
   xmlns:osb="http://www.openswatchbook.org/uri/2009/osb"
   xmlns:dc="http://purl.org/dc/elements/1.1/"
   xmlns:cc="http://creativecommons.org/ns#"
   xmlns:rdf="http://www.w3.org/1999/02/22-rdf-syntax-ns#"
   xmlns:svg="http://www.w3.org/2000/svg"
   xmlns="http://www.w3.org/2000/svg"
   xmlns:sodipodi="http://sodipodi.sourceforge.net/DTD/sodipodi-0.dtd"
   xmlns:inkscape="http://www.inkscape.org/namespaces/inkscape"
   inkscape:export-ydpi="90.000000"
   inkscape:export-xdpi="90.000000"
   width="736"
   height="544"
   id="svg11300"
   sodipodi:version="0.32"
   inkscape:version="0.91 r13725"
   sodipodi:docname="vineyard.svg"
   inkscape:output_extension="org.inkscape.output.svg.inkscape"
   version="1.0"
   style="display:inline;enable-background:new"
   inkscape:export-filename="/home/sam/paper-template.png">
  <title
     id="title3004">Paper Icon Theme</title>
  <sodipodi:namedview
     stroke="#ef2929"
     fill="#f57900"
     id="base"
     pagecolor="#474747"
     bordercolor="#666666"
     borderopacity="0.25490196"
     inkscape:pageopacity="0"
     inkscape:pageshadow="2"
     inkscape:zoom="1"
     inkscape:cx="270.29272"
     inkscape:cy="76.626582"
     inkscape:current-layer="g4538"
     showgrid="false"
     inkscape:grid-bbox="true"
     inkscape:document-units="px"
     inkscape:showpageshadow="false"
     inkscape:window-width="1920"
     inkscape:window-height="1023"
     inkscape:window-x="0"
     inkscape:window-y="27"
     width="400px"
     height="300px"
     inkscape:snap-nodes="true"
     inkscape:snap-bbox="true"
     gridtolerance="10000"
     inkscape:object-nodes="true"
     inkscape:snap-grids="true"
     showguides="true"
     inkscape:guide-bbox="true"
     inkscape:window-maximized="1"
     inkscape:bbox-nodes="true"
     inkscape:snap-bbox-edge-midpoints="true"
     inkscape:snap-bbox-midpoints="false">
    <inkscape:grid
       spacingy="1px"
       spacingx="1px"
       id="grid5883"
       type="xygrid"
       enabled="true"
       visible="true"
       empspacing="4"
       snapvisiblegridlinesonly="true" />
    <inkscape:grid
       type="xygrid"
       id="grid11592"
       empspacing="2"
       visible="true"
       enabled="false"
       spacingx="0.5px"
       spacingy="0.5px"
       color="#ff0000"
       opacity="0.1254902"
       empcolor="#ff0000"
       empopacity="0.25098039"
       snapvisiblegridlinesonly="true" />
  </sodipodi:namedview>
  <defs
     id="defs3">
    <linearGradient
       osb:paint="solid"
       id="linearGradient5606">
      <stop
         style="stop-color:#000000;stop-opacity:1;"
         offset="0"
         id="stop5608" />
    </linearGradient>
    <filter
       inkscape:collect="always"
       style="color-interpolation-filters:sRGB"
       id="filter4415"
       x="-0.024"
       width="1.048"
       y="-0.024"
       height="1.048">
      <feGaussianBlur
         inkscape:collect="always"
         stdDeviation="4.48"
         id="feGaussianBlur4417" />
    </filter>
    <filter
       inkscape:collect="always"
       style="color-interpolation-filters:sRGB"
       id="filter4360-0"
       x="-0.059999999"
       width="1.12"
       y="-0.059999999"
       height="1.12">
      <feGaussianBlur
         inkscape:collect="always"
         stdDeviation="0.6"
         id="feGaussianBlur4362-0" />
    </filter>
    <filter
       inkscape:collect="always"
       style="color-interpolation-filters:sRGB"
       id="filter4253-6"
       x="-0.059999999"
       width="1.12"
       y="-0.059999999"
       height="1.12">
      <feGaussianBlur
         inkscape:collect="always"
         stdDeviation="6"
         id="feGaussianBlur4255-2" />
    </filter>
    <filter
       inkscape:collect="always"
       style="color-interpolation-filters:sRGB"
       id="filter4700"
       x="-0.024"
       width="1.048"
       y="-0.024"
       height="1.048">
      <feGaussianBlur
         inkscape:collect="always"
         stdDeviation="2.4"
         id="feGaussianBlur4702" />
    </filter>
  </defs>
  <metadata
     id="metadata4">
    <rdf:RDF>
      <cc:Work
         rdf:about="">
        <dc:format>image/svg+xml</dc:format>
        <dc:type
           rdf:resource="http://purl.org/dc/dcmitype/StillImage" />
        <dc:creator>
          <cc:Agent>
            <dc:title>Sam Hewitt</dc:title>
          </cc:Agent>
        </dc:creator>
        <dc:source />
        <cc:license
           rdf:resource="http://creativecommons.org/licenses/by-sa/3.0/" />
        <dc:title>Paper Icon Theme</dc:title>
        <dc:subject>
          <rdf:Bag />
        </dc:subject>
        <dc:date />
        <dc:rights>
          <cc:Agent>
            <dc:title />
          </cc:Agent>
        </dc:rights>
        <dc:publisher>
          <cc:Agent>
            <dc:title />
          </cc:Agent>
        </dc:publisher>
        <dc:identifier />
        <dc:relation />
        <dc:language />
        <dc:coverage />
        <dc:description />
        <dc:contributor>
          <cc:Agent>
            <dc:title />
          </cc:Agent>
        </dc:contributor>
      </cc:Work>
      <cc:Work
         rdf:about="">
        <dc:format>image/svg+xml</dc:format>
        <dc:type
           rdf:resource="http://purl.org/dc/dcmitype/StillImage" />
      </cc:Work>
      <cc:License
         rdf:about="http://creativecommons.org/licenses/by-sa/3.0/">
        <cc:permits
           rdf:resource="http://creativecommons.org/ns#Reproduction" />
        <cc:permits
           rdf:resource="http://creativecommons.org/ns#Distribution" />
        <cc:requires
           rdf:resource="http://creativecommons.org/ns#Notice" />
        <cc:requires
           rdf:resource="http://creativecommons.org/ns#Attribution" />
        <cc:permits
           rdf:resource="http://creativecommons.org/ns#DerivativeWorks" />
        <cc:requires
           rdf:resource="http://creativecommons.org/ns#ShareAlike" />
      </cc:License>
    </rdf:RDF>
  </metadata>
  <g
     transform="translate(0,244)"
     id="g4516"
     inkscape:label="winecfg"
     inkscape:groupmode="layer"
     style="display:inline">
    <g
       inkscape:groupmode="layer"
       id="g4518"
       inkscape:label="Baseplate"
       style="display:none">
      <rect
         transform="scale(-1,1)"
         inkscape:label="48x48"
         y="-228"
         x="-720"
         height="512"
         width="512"
         id="rect4520"
         style="display:inline;overflow:visible;visibility:visible;fill:#e9e9e9;fill-opacity:1;fill-rule:nonzero;stroke:none;stroke-width:2;marker:none;enable-background:accumulate" />
      <text
         id="text4522"
         inkscape:label="context"
         style="font-style:normal;font-variant:normal;font-weight:normal;font-stretch:normal;font-size:18px;font-family:'DejaVu Sans';-inkscape-font-specification:'DejaVu Sans';display:inline;fill:#000000;fill-opacity:1;stroke:none;enable-background:new"
         x="15.006836"
         xml:space="preserve"
         y="332.48523"><tspan
           id="tspan4524"
           sodipodi:role="line"
           x="15.006836"
           y="332.48523"
           style="font-style:normal;font-variant:normal;font-weight:normal;font-stretch:normal;font-family:'DejaVu Sans';-inkscape-font-specification:'DejaVu Sans'">apps</tspan></text>
      <text
         id="text4526"
         inkscape:label="icon-name"
         sodipodi:linespacing="125%"
         style="font-style:normal;font-variant:normal;font-weight:bold;font-stretch:normal;font-size:18px;line-height:125%;font-family:'DejaVu Sans';-inkscape-font-specification:'DejaVu Sans Bold';text-align:start;writing-mode:lr-tb;text-anchor:start;display:inline;fill:#000000;fill-opacity:1;stroke:none;enable-background:new"
         x="142.48828"
         xml:space="preserve"
         y="332.48523"><tspan
           id="tspan4528"
           sodipodi:role="line"
           x="142.48828"
           y="332.48523"
           style="font-style:normal;font-variant:normal;font-weight:bold;font-stretch:normal;font-size:18px;font-family:'DejaVu Sans';-inkscape-font-specification:'DejaVu Sans Bold'">vineyard</tspan></text>
      <rect
         transform="scale(-1,1)"
         inkscape:label="16x16"
         y="268"
         x="-32"
         height="16"
         width="16"
         id="rect4530"
         style="display:inline;overflow:visible;visibility:visible;fill:#e9e9e9;fill-opacity:1;fill-rule:nonzero;stroke:none;stroke-width:2;marker:none;enable-background:accumulate" />
      <rect
         transform="scale(-1,1)"
         inkscape:label="24x24"
         y="260"
         x="-76"
         height="24"
         width="24"
         id="rect4532"
         style="display:inline;overflow:visible;visibility:visible;fill:#e9e9e9;fill-opacity:1;fill-rule:nonzero;stroke:none;stroke-width:2;marker:none;enable-background:accumulate" />
      <rect
         transform="scale(-1,1)"
         inkscape:label="32x32"
         y="252"
         x="-128"
         height="32"
         width="32"
         id="rect4534"
         style="display:inline;overflow:visible;visibility:visible;fill:#e9e9e9;fill-opacity:1;fill-rule:nonzero;stroke:none;stroke-width:2;marker:none;enable-background:accumulate" />
      <rect
         transform="scale(-1,1)"
         style="display:inline;overflow:visible;visibility:visible;fill:#e9e9e9;fill-opacity:1;fill-rule:nonzero;stroke:none;stroke-width:2;marker:none;enable-background:accumulate"
         id="rect4536"
         width="48"
         height="48"
         x="-192"
         y="236"
         inkscape:label="48x48" />
    </g>
    <g
       style="display:inline"
       inkscape:label="Symbols"
       id="g4538"
       inkscape:groupmode="layer">
      <rect
         ry="36"
         rx="36"
         y="-688"
         x="-254"
         height="448"
         width="448"
         id="rect4420"
         style="opacity:0.2;fill:#000000;fill-opacity:1;stroke:none"
         transform="matrix(0,-1,-1,0,0,0)" />
      <rect
         transform="matrix(0,-1,-1,0,0,0)"
         style="opacity:0.1;fill:#000000;fill-opacity:1;stroke:none;filter:url(#filter4415)"
         id="rect4422"
         width="448"
         height="448"
         x="-256"
         y="-688"
         rx="36"
         ry="36" />
      <rect
         ry="36"
         rx="36"
         y="-688"
         x="-256"
         height="448"
         width="448"
         id="rect4424"
         style="opacity:0.2;fill:#000000;fill-opacity:1;stroke:none;filter:url(#filter4415)"
         transform="matrix(0,-1,-1,0,0,0)" />
      <rect
         ry="2"
         rx="2"
         y="-74"
         x="-283"
         height="20"
         width="20"
         id="rect4427"
         style="opacity:0.2;fill:#000000;fill-opacity:1;stroke:none"
         transform="matrix(0,-1,-1,0,0,0)" />
      <g
         id="g4485"
         transform="matrix(0.41666667,-0.41666667,0.41666667,0.41666667,-94.333335,207)"
         style="display:inline;enable-background:new">
        <rect
           transform="matrix(0,-1,-1,0,0,0)"
           style="fill:#ffffff;fill-opacity:1"
           id="rect4487"
           width="8"
           height="8"
           x="-277"
           y="-121" />
        <rect
           transform="matrix(0,-1,-1,0,0,0)"
           y="-121"
           x="-267"
           height="8"
           width="8"
           id="rect4489"
           style="fill:#ffffff;fill-opacity:1" />
        <rect
           transform="matrix(0,-1,-1,0,0,0)"
           style="fill:#ffffff;fill-opacity:1"
           id="rect4491"
           width="8"
           height="8"
           x="-267"
           y="-111" />
        <rect
           transform="matrix(0,-1,-1,0,0,0)"
           y="-111"
           x="-277"
           height="8"
           width="8"
           id="rect4493"
           style="fill:#ffffff;fill-opacity:1" />
      </g>
      <rect
         transform="matrix(0,-1,-1,0,0,0)"
         style="opacity:0.2;fill:#000000;fill-opacity:1;stroke:none"
         id="rect4429"
         width="40"
         height="40"
         x="-281"
         y="-188"
         rx="3"
         ry="3" />
      <rect
         transform="matrix(0,-1,-1,0,0,0)"
         style="opacity:0.2;fill:#000000;fill-opacity:1;stroke:none"
         id="rect4431"
         width="28"
         height="28"
         x="-283"
         y="-126"
         rx="3"
         ry="3" />
      <rect
         transform="matrix(0,-1,-1,0,0,0)"
         style="fill:#413a6f;fill-opacity:1;stroke:none"
         id="rect4433"
         width="20"
         height="20"
         x="-282"
         y="-74"
         rx="2"
         ry="2" />
      <g
         transform="matrix(0.453125,-0.453125,0.453125,0.453125,-25.9375,218.3125)"
         id="g4465"
         style="display:inline;enable-background:new">
        <rect
           style="fill:#ffffff;fill-opacity:1"
           id="rect4467"
           width="15"
           height="15"
           x="152"
           y="244" />
        <rect
           y="244"
           x="169"
           height="15"
           width="15"
           id="rect4469"
           style="fill:#ffffff;fill-opacity:1" />
        <rect
           style="fill:#ffffff;fill-opacity:1"
           id="rect4471"
           width="15"
           height="15"
           x="169"
           y="261" />
        <rect
           y="261"
           x="152"
           height="15"
           width="15"
           id="rect4473"
           style="fill:#ffffff;fill-opacity:1" />
      </g>
      <rect
         ry="3"
         rx="3"
         y="-188"
         x="-280"
         height="40"
         width="40"
         id="rect4435"
         style="fill:#413a6f;fill-opacity:1;stroke:none"
         transform="matrix(0,-1,-1,0,0,0)" />
      <g
         transform="matrix(0.52777778,-0.52777778,0.52777778,0.52777778,-88.555556,185.66667)"
         id="g4475"
         style="display:inline;enable-background:new">
        <rect
           y="-121"
           x="-277"
           height="8"
           width="8"
           id="rect4477"
           style="fill:#ffffff;fill-opacity:1"
           transform="matrix(0,-1,-1,0,0,0)" />
        <rect
           style="fill:#ffffff;fill-opacity:1"
           id="rect4479"
           width="8"
           height="8"
           x="-267"
           y="-121"
           transform="matrix(0,-1,-1,0,0,0)" />
        <rect
           y="-111"
           x="-267"
           height="8"
           width="8"
           id="rect4481"
           style="fill:#ffffff;fill-opacity:1"
           transform="matrix(0,-1,-1,0,0,0)" />
        <rect
           style="fill:#ffffff;fill-opacity:1"
           id="rect4483"
           width="8"
           height="8"
           x="-277"
           y="-111"
           transform="matrix(0,-1,-1,0,0,0)" />
      </g>
      <rect
         ry="3"
         rx="3"
         y="-126"
         x="-282"
         height="28"
         width="28"
         id="rect4437"
         style="fill:#413a6f;fill-opacity:1;stroke:none"
         transform="matrix(0,-1,-1,0,0,0)" />
      <g
         transform="matrix(0.30555556,-0.30555556,0.30555556,0.30555556,-92.111113,228.33333)"
         id="g4495"
         style="display:inline;enable-background:new">
        <rect
           y="-121"
           x="-277"
           height="8"
           width="8"
           id="rect4497"
           style="fill:#ffffff;fill-opacity:1"
           transform="matrix(0,-1,-1,0,0,0)" />
        <rect
           style="fill:#ffffff;fill-opacity:1"
           id="rect4499"
           width="8"
           height="8"
           x="-267"
           y="-121"
           transform="matrix(0,-1,-1,0,0,0)" />
        <rect
           y="-111"
           x="-267"
           height="8"
           width="8"
           id="rect4501"
           style="fill:#ffffff;fill-opacity:1"
           transform="matrix(0,-1,-1,0,0,0)" />
        <rect
           style="fill:#ffffff;fill-opacity:1"
           id="rect4503"
           width="8"
           height="8"
           x="-277"
           y="-111"
           transform="matrix(0,-1,-1,0,0,0)" />
      </g>
      <rect
         ry="2"
         rx="2"
         y="-32"
         x="-284"
         height="16"
         width="16"
         id="rect4439"
         style="display:inline;fill:#413a6f;fill-opacity:1;stroke:none;enable-background:new"
         transform="matrix(0,-1,-1,0,0,0)" />
      <g
         transform="translate(186.5001,-174.5)"
         style="display:inline"
         inkscape:label="places"
         id="g4441" />
      <g
         transform="translate(-54.5001,442.5)"
         style="display:inline"
         inkscape:label="mimetypes"
         id="g4443" />
      <g
         transform="translate(-54.5001,442.5)"
         style="display:inline"
         inkscape:label="emblems"
         id="g4445" />
      <g
         transform="translate(-54.5001,442.5)"
         style="display:inline"
         inkscape:label="emotes"
         id="g4447" />
      <g
         transform="translate(186.5001,-24.5)"
         style="display:inline"
         inkscape:label="categories"
         id="g4449" />
      <g
         transform="translate(186.5001,-24.5)"
         style="display:inline"
         inkscape:label="apps"
         id="g4451" />
      <g
         transform="translate(-54.5001,442.5)"
         style="display:inline"
         inkscape:label="actions"
         id="g4453" />
      <g
         id="g4505"
         transform="matrix(5.5625,-5.5625,5.5625,5.5625,-1916.75,-483.75)"
         style="display:inline;enable-background:new">
        <path
           style="fill:#ffffff;fill-opacity:1"
           d="M 464,94 380.5625,177.4375 464,260.875 547.4375,177.4375 464,94 Z M 369.4375,188.5625 286,272 369.4375,355.4375 452.875,272 369.4375,188.5625 Z m 189.125,0 L 475.125,272 558.5625,355.4375 642,272 558.5625,188.5625 Z M 464,283.125 380.5625,366.5625 464,450 547.4375,366.5625 464,283.125 Z"
           transform="matrix(0.08988764,0.08988764,-0.08988764,0.08988764,150.74157,193.8427)"
           id="path4507"
           inkscape:connector-curvature="0" />
      </g>
      <rect
         transform="matrix(0,-1,-1,0,0,0)"
         style="fill:#413a6f;fill-opacity:1;stroke:none"
         id="rect4455"
         width="448"
         height="448"
         x="-252"
         y="-688"
         rx="36"
         ry="36" />
      <path
         inkscape:connector-curvature="0"
         id="path4457"
         d="m 276,-196 c -19.944,0 -36,16.056 -36,36 l 0,2 c 0,-19.944 16.056,-36 36,-36 l 376,0 c 19.944,0 36,16.056 36,36 l 0,-2 c 0,-19.944 -16.056,-36 -36,-36 l -376,0 z"
         style="opacity:0.2;fill:#ffffff;fill-opacity:1;stroke:none" />
      <path
         inkscape:connector-curvature="0"
         id="path4459"
         d="m 56,262 c -1.108,0 -2,0.892 -2,2 l 0,1 c 0,-1.108 0.892,-2 2,-2 l 16,0 c 1.108,0 2,0.892 2,2 l 0,-1 c 0,-1.108 -0.892,-2 -2,-2 l -16,0 z"
         style="opacity:0.2;fill:#ffffff;fill-opacity:1;stroke:none" />
      <path
         inkscape:connector-curvature="0"
         id="path4461"
         d="m 151,240 c -1.662,0 -3,1.338 -3,3 l 0,1 c 0,-1.662 1.338,-3 3,-3 l 34,0 c 1.662,0 3,1.338 3,3 l 0,-1 c 0,-1.662 -1.338,-3 -3,-3 l -34,0 z"
         style="opacity:0.2;fill:#ffffff;fill-opacity:1;stroke:none" />
      <path
         inkscape:connector-curvature="0"
         id="path4463"
         d="m 101,254 c -1.662,0 -3,1.338 -3,3 l 0,1 c 0,-1.662 1.338,-3 3,-3 l 22,0 c 1.662,0 3,1.338 3,3 l 0,-1 c 0,-1.662 -1.338,-3 -3,-3 l -22,0 z"
         style="opacity:0.2;fill:#ffffff;fill-opacity:1;stroke:none" />
      <circle
         id="circle4335-1"
         style="display:inline;opacity:0.5;fill:#000000;fill-opacity:1;stroke:none;filter:url(#filter4360-0);enable-background:new"
         cx="168"
         cy="271"
         r="12"
         transform="matrix(0.83333333,0,0,0.83333333,39.99998,46.16668)" />
      <circle
         transform="scale(-1,1)"
         id="circle4300-8"
         style="display:inline;opacity:0.2;fill:#000000;fill-opacity:1;stroke:none;enable-background:new"
         cx="-179.99998"
         cy="272"
         r="12" />
      <path
         d="m 182.25306,267.83009 c -1.06968,-1.75651 -2.55674,-2.9354 -1.89972,-3.15606 0.65677,-0.2211 1.26359,-0.75717 0.17866,-0.93468 -1.08467,-0.17725 -2.21953,-0.67017 -1.56277,-0.89153 0.65711,-0.22049 1.57857,-0.68756 0.77552,-0.92499 -0.80287,-0.23706 -1.88762,-0.41457 -1.34124,-0.72063 0.54613,-0.30597 1.65877,-0.48799 0.84064,-0.66727 -0.8177,-0.1799 -2.52692,-1.52923 -1.69846,-1.89502 0.8281,-0.36579 1.74937,-0.83288 0.71251,-0.9391 -1.03667,-0.10625 -2.14965,0.0756 -1.85523,-0.28585 0.29485,-0.36138 1.36999,-1.15993 0.0254,-0.60305 -1.3437,0.55664 -3.305,2.19537 -4.67694,1.58943 -1.37141,-0.60524 -1.30028,-2.90251 0.80614,-2.56159 2.10677,0.34099 5.0114,0.43117 4.6614,-0.0108 -0.35,-0.44158 -0.317,-0.31277 -0.88316,-0.43744 -0.56651,-0.12437 0.12344,-0.21633 0.84319,-0.42339 0.71976,-0.20682 1.48522,-0.58681 0.85598,-0.72461 -0.62949,-0.13847 -1.41454,-0.18926 -0.52574,-0.78531 0.88836,-0.59617 2.40162,-1.54179 1.58597,-1.47765 -0.81557,0.0643 -3.20406,-0.21676 -2.78349,-0.5508 0.42005,-0.33366 1.26343,-0.7569 0.0878,-0.58925 -1.17545,0.16806 -2.14727,0.31972 -1.91524,-0.0555 0.23134,-0.37506 0.97906,-0.9413 0.10331,-0.64688 -0.87609,0.2945 -2.55452,0.35185 -2.18221,-0.0534 0.37242,-0.40498 0.9189,-0.71112 0.0734,-0.53192 -0.84627,0.17962 -2.59793,0.76872 -2.08666,0.0897 0.51084,-0.67891 1.15048,-1.08635 0.18149,-0.69056 -0.96945,0.39579 -2.21786,1.09525 -1.83002,0.63268 0.38751,-0.46275 1.28883,-1.3602 0.009,-0.54569 -1.27859,0.81478 -1.86274,2.02553 -1.79216,1.24984 0.0703,-0.77597 0.21413,-2.08342 -0.28964,-0.67265 -0.50378,1.41146 -0.52073,1.22486 -0.81558,1.58597 -0.29477,0.36173 -0.35264,0.83603 -0.8282,0.36605 -0.47589,-0.46964 -0.16594,-0.88854 0.17398,-1.4223 0.33995,-0.53404 0.21158,-0.80579 -0.41262,-0.45606 -0.62422,0.34956 -1.11246,0.1814 -0.77252,-0.35238 0.33958,-0.5343 1.16557,-1.14403 0.24174,-0.921 -0.92391,0.22358 -1.62374,0.86109 -1.34909,0.0689 0.27448,-0.79158 -0.0276,-1.16239 -0.44554,-0.58442 -0.41794,0.57745 -0.64442,1.44067 -1.18331,0.95709 -0.53854,-0.4833 -1.31097,-0.83586 -1.22557,-0.1476 0.0853,0.68835 0.22137,1.6922 -0.15897,1.36522 -0.37992,-0.32705 -1.13726,-0.73687 -0.9264,-0.0207 0.2114,0.71578 0.36226,1.66185 -0.0479,1.4501 -0.41043,-0.21174 -1.08749,-0.42137 -0.79819,0.25092 0.28921,0.67212 1.03685,1.62752 0.42508,1.67597 -0.6116,0.0482 -1.75917,-0.14342 -0.54603,0.30605 1.21303,0.449 5.08171,0.71853 5.02843,3.20203 0,0 -0.82396,1.13673 -2.22033,-0.38731 -1.39674,-1.52413 -2.14932,-1.27029 -3.31444,-1.64791 -1.16513,-0.37787 -2.10661,-0.34109 -1.71144,-0.0717 0.39482,0.26943 1.41941,0.67696 0.80755,0.72523 -0.61142,0.0483 -2.00858,0.0455 -1.50242,0.40011 0.50554,0.35475 0.87026,0.73934 0.18086,0.83109 -0.68941,0.092 -1.893,0.61901 -1.40457,0.78691 0.48816,0.16833 1.13504,0.49309 0.51084,0.84283 -0.62448,0.34973 -1.19876,1.01487 -0.66506,1.01055 0.53369,-0.005 1.72422,-0.22984 1.08995,0.66541 -0.63462,0.89533 -1.0499,1.71727 -0.44069,1.42478 0.60921,-0.2922 2.41901,-1.35552 1.89529,-0.37479 -0.52388,0.98039 0.11818,0.81717 0.72726,0.52523 0.60894,-0.29239 2.31323,-0.95303 1.86521,-0.25993 -0.44819,0.69259 -1.54098,1.30489 -0.75548,1.35571 0.78522,0.0503 0.80304,0.23697 0.009,0.97571 -0.79335,0.73889 -1.28927,1.36036 -0.66259,1.25458 0.62703,-0.10564 1.20351,-0.52689 0.94659,0.45147 -0.257,0.97817 0.005,2.00928 0.42465,1.67578 0.42057,-0.33377 1.28653,-0.0825 1.24822,0.8221 -0.0378,0.90477 0.49055,1.9335 0.87823,1.47118 0.38766,-0.46274 1.5483,-0.57321 1.7139,0.3156 0.16568,0.88845 0.50562,1.87597 0.89339,1.41349 0.38732,-0.46275 0.63435,-0.89525 0.91086,0.0784 0.27667,0.97385 0.77013,1.63025 0.8078,0.72548 0.0383,-0.9045 -0.0875,-2.45394 0.45102,-1.97064 0.53863,0.48348 1.15526,0.92348 0.95648,-0.0942 -0.19833,-1.01735 -0.31665,-1.83451 0.17142,-1.66643 0.48851,0.16798 1.00447,-0.0228 0.1663,-0.63322 -0.83806,-0.61026 -1.68531,-2.45685 -0.45198,-3.09889 1.23333,-0.64194 1.31732,0.0891 1.29703,1.18004 -0.0204,1.0911 0.92373,4.55968 1.43254,3.63655 0.50855,-0.92303 0.78302,-1.71469 1.3115,-0.68587 0.52805,1.02925 1.25786,1.79806 1.54787,0.94869 0.28939,-0.84926 0.32732,-1.75412 1.0094,-1.05651 0.68156,0.69788 2.63235,1.1264 2.45378,0.53942 -0.1783,-0.58697 -0.62386,-1.17201 0.37021,-0.649 0.99414,0.52258 2.41866,1.68762 2.44141,0.84064 0.0228,-0.84708 -1.15022,-1.95698 0.56917,-1.15323 1.71866,0.80199 4.33106,1.49811 3.26175,-0.2585 z"
         id="path65-3-3-6-3"
         inkscape:connector-curvature="0"
         style="clip-rule:evenodd;display:inline;fill:#bbd641;fill-rule:evenodd;enable-background:new;fill-opacity:1" />
      <circle
         r="12"
         cy="271"
         cx="-179.99998"
         style="display:inline;fill:#5f7c8a;fill-opacity:1;stroke:none;enable-background:new"
         id="path4058-0"
         transform="scale(-1,1)" />
      <circle
         id="circle4345-3"
         style="display:inline;opacity:0.2;fill:#000000;fill-opacity:1;fill-rule:evenodd;stroke:none;enable-background:new"
         cx="119.99998"
         cy="276"
         r="8" />
      <path
         d="m 121.3382,273.1299 c -0.70081,-1.15082 -1.6751,-1.92319 -1.24463,-2.06777 0.43029,-0.14485 0.82787,-0.49607 0.11705,-0.61237 -0.71064,-0.11613 -1.45418,-0.43908 -1.02388,-0.58411 0.43052,-0.14446 1.03423,-0.45047 0.5081,-0.60602 -0.52602,-0.15532 -1.23672,-0.27162 -0.87874,-0.47214 0.35781,-0.20047 1.08678,-0.31972 0.55076,-0.43718 -0.53573,-0.11786 -1.65557,-1.00191 -1.11278,-1.24157 0.54254,-0.23965 1.14613,-0.54567 0.46682,-0.61527 -0.6792,-0.0696 -1.4084,0.0495 -1.2155,-0.18728 0.19318,-0.23676 0.89757,-0.75995 0.0166,-0.3951 -0.88037,0.3647 -2.16535,1.43834 -3.0642,1.04135 -0.89851,-0.39654 -0.85192,-1.90164 0.52815,-1.67828 1.38031,0.22341 3.28334,0.28249 3.05402,-0.007 -0.2293,-0.28931 -0.20768,-0.20492 -0.57861,-0.2866 -0.37116,-0.0815 0.0809,-0.14173 0.55243,-0.2774 0.47157,-0.1355 0.97308,-0.38446 0.56082,-0.47474 -0.41244,-0.0907 -0.92678,-0.124 -0.34446,-0.51452 0.58203,-0.39059 1.57348,-1.01013 1.03909,-0.96811 -0.53434,0.0421 -2.09921,-0.14201 -1.82366,-0.36087 0.2752,-0.2186 0.82776,-0.4959 0.0575,-0.38606 -0.77012,0.11011 -1.40683,0.20948 -1.25481,-0.0363 0.15157,-0.24572 0.64145,-0.61671 0.0676,-0.42381 -0.57399,0.19294 -1.67366,0.23052 -1.42973,-0.035 0.24399,-0.26533 0.60203,-0.46591 0.0481,-0.3485 -0.55445,0.11768 -1.7021,0.50364 -1.36712,0.0588 0.33468,-0.4448 0.75376,-0.71174 0.1189,-0.45243 -0.63515,0.25931 -1.45308,0.71758 -1.19897,0.41451 0.25387,-0.30318 0.8444,-0.89116 0.006,-0.35752 -0.8377,0.53383 -1.22043,1.32707 -1.17417,0.81886 0.0461,-0.50839 0.14028,-1.36499 -0.18978,-0.4407 -0.33006,0.92475 -0.34115,0.80249 -0.53433,1.03909 -0.19313,0.23699 -0.23106,0.54774 -0.54262,0.23982 -0.31179,-0.30769 -0.10873,-0.58214 0.11399,-0.93185 0.22272,-0.34989 0.13862,-0.52793 -0.27034,-0.2988 -0.40897,0.22902 -0.72886,0.11885 -0.50614,-0.23086 0.22249,-0.35007 0.76365,-0.74955 0.15838,-0.60342 -0.60532,0.14648 -1.06382,0.56417 -0.88387,0.0452 0.17982,-0.51863 -0.0181,-0.76157 -0.29192,-0.3829 -0.27381,0.37833 -0.4222,0.94389 -0.77527,0.62706 -0.35283,-0.31665 -0.85891,-0.54764 -0.80296,-0.0967 0.0559,0.45099 0.14503,1.10869 -0.10415,0.89446 -0.24891,-0.21428 -0.7451,-0.48278 -0.60695,-0.0136 0.1385,0.46896 0.23734,1.0888 -0.0314,0.95007 -0.26891,-0.13873 -0.7125,-0.27607 -0.52296,0.16439 0.18949,0.44036 0.67932,1.06631 0.2785,1.09805 -0.4007,0.0316 -1.15255,-0.094 -0.35774,0.20052 0.79475,0.29417 3.32939,0.47076 3.29447,2.09788 0,0 -0.53983,0.74476 -1.45468,-0.25376 -0.9151,-0.99856 -1.40818,-0.83225 -2.17154,-1.07966 -0.76335,-0.24757 -1.38018,-0.22347 -1.12128,-0.047 0.25868,0.17652 0.92996,0.44353 0.52909,0.47515 -0.40059,0.0317 -1.31597,0.0298 -0.98435,0.26214 0.33122,0.23242 0.57017,0.48439 0.11849,0.54451 -0.45168,0.0603 -1.24023,0.40556 -0.92023,0.51556 0.31982,0.11028 0.74365,0.32306 0.33468,0.5522 -0.40913,0.22913 -0.78539,0.66491 -0.43573,0.66208 0.34966,-0.003 1.12967,-0.15058 0.71412,0.43596 -0.41579,0.58659 -0.68788,1.1251 -0.28873,0.93348 0.39913,-0.19145 1.58487,-0.8881 1.24174,-0.24555 -0.34324,0.64232 0.0774,0.53538 0.47648,0.34411 0.39896,-0.19157 1.51556,-0.6244 1.22203,-0.1703 -0.29364,0.45376 -1.0096,0.85493 -0.49497,0.88822 0.51446,0.033 0.52614,0.15526 0.006,0.63926 -0.51978,0.4841 -0.84469,0.89127 -0.43411,0.82197 0.41081,-0.0692 0.78851,-0.3452 0.62018,0.29579 -0.16838,0.64087 0.003,1.31643 0.27821,1.09793 0.27555,-0.21868 0.84289,-0.0541 0.81781,0.53861 -0.0248,0.59278 0.32139,1.26678 0.57539,0.96388 0.25398,-0.30318 1.01439,-0.37555 1.12289,0.20677 0.10856,0.58208 0.33128,1.22909 0.58533,0.92608 0.25376,-0.30318 0.41561,-0.58654 0.59676,0.0513 0.18128,0.63804 0.50458,1.0681 0.52926,0.47532 0.0251,-0.5926 -0.0573,-1.60776 0.2955,-1.29111 0.35289,0.31677 0.75688,0.60504 0.62665,-0.0617 -0.12995,-0.66653 -0.20746,-1.20192 0.11232,-1.0918 0.32005,0.11006 0.65809,-0.0149 0.10895,-0.41486 -0.54907,-0.39983 -1.10417,-1.60966 -0.29612,-2.03031 0.80804,-0.42058 0.86307,0.0584 0.84978,0.77313 -0.0134,0.71486 0.6052,2.98737 0.93856,2.38257 0.33318,-0.60475 0.51301,-1.12342 0.85925,-0.44937 0.34597,0.67434 0.82412,1.17804 1.01412,0.62156 0.18959,-0.55641 0.21445,-1.14925 0.66133,-0.6922 0.44654,0.45723 1.72465,0.73799 1.60766,0.35341 -0.11683,-0.38456 -0.40874,-0.76787 0.24253,-0.4252 0.65135,0.34238 1.58465,1.10568 1.59956,0.55076 0.015,-0.55498 -0.75359,-1.28216 0.37289,-0.75556 1.12603,0.52544 2.83761,0.98152 2.13703,-0.16936 z"
         id="path65-3-3-6-5"
         inkscape:connector-curvature="0"
         style="clip-rule:evenodd;display:inline;fill:#bbd641;fill-rule:evenodd;enable-background:new;fill-opacity:1" />
      <circle
         r="8"
         cy="275"
         cx="119.99998"
         style="display:inline;fill:#5f7c8a;fill-opacity:1;fill-rule:evenodd;stroke:none;enable-background:new"
         id="circle4426-9" />
      <circle
         cy="278"
         cx="69.999977"
         style="display:inline;opacity:0.2;fill:#000000;fill-opacity:1;stroke:none;stroke-width:2;enable-background:new"
         id="circle4343-5"
         r="6" />
      <path
         d="m 71.371389,276.05029 c -0.553265,-0.90852 -1.322423,-1.51827 -0.982588,-1.63241 0.339698,-0.11436 0.653568,-0.39163 0.09241,-0.48344 -0.561023,-0.0917 -1.148011,-0.34664 -0.808312,-0.46113 0.33988,-0.11405 0.81648,-0.35563 0.401121,-0.47843 -0.415267,-0.12262 -0.976335,-0.21443 -0.693725,-0.37273 0.282473,-0.15826 0.857961,-0.25241 0.434799,-0.34514 -0.422934,-0.093 -1.306998,-0.79096 -0.878497,-0.98016 0.428319,-0.1892 0.904828,-0.43079 0.368539,-0.48573 -0.536197,-0.0549 -1.111869,0.0391 -0.959588,-0.14785 0.152508,-0.18692 0.708602,-0.59995 0.01315,-0.31191 -0.695004,0.28791 -1.709444,1.1355 -2.419049,0.8221 -0.709333,-0.31305 -0.672552,-1.50127 0.416956,-1.32493 1.08969,0.17637 2.592047,0.22301 2.411017,-0.006 -0.181029,-0.2284 -0.163962,-0.16178 -0.456794,-0.22626 -0.293015,-0.0643 0.06384,-0.11189 0.436123,-0.21899 0.37228,-0.10697 0.768198,-0.30352 0.442738,-0.37479 -0.325597,-0.0716 -0.731647,-0.0979 -0.271932,-0.40619 0.459488,-0.30835 1.242199,-0.79745 0.820315,-0.76428 -0.42184,0.0333 -1.657238,-0.11212 -1.439702,-0.28489 0.217262,-0.17258 0.653476,-0.39149 0.04545,-0.30478 -0.60798,0.0869 -1.110636,0.16537 -0.990619,-0.0287 0.119652,-0.19399 0.506398,-0.48687 0.05339,-0.33459 -0.453143,0.15233 -1.321282,0.18199 -1.128707,-0.0276 0.192621,-0.20947 0.475277,-0.36782 0.03796,-0.27513 -0.437719,0.0929 -1.343734,0.39761 -1.079286,0.0464 0.26422,-0.35115 0.595065,-0.56189 0.09387,-0.35718 -0.501425,0.20472 -1.147143,0.5665 -0.946537,0.32724 0.200424,-0.23935 0.66662,-0.70354 0.0051,-0.28225 -0.661326,0.42143 -0.963466,1.04767 -0.926959,0.64646 0.03637,-0.40136 0.110753,-1.07761 -0.149817,-0.34792 -0.260568,0.73005 -0.269329,0.63354 -0.421838,0.82031 -0.152463,0.1871 -0.182398,0.43243 -0.428365,0.18934 -0.246149,-0.24291 -0.08584,-0.45958 0.08999,-0.73566 0.175828,-0.27622 0.10943,-0.41678 -0.213429,-0.23589 -0.32286,0.18081 -0.575397,0.0938 -0.39957,-0.18226 0.175645,-0.27635 0.602868,-0.59173 0.125037,-0.47637 -0.477878,0.11564 -0.839845,0.44539 -0.697787,0.0357 0.141966,-0.40943 -0.01428,-0.60122 -0.23045,-0.30228 -0.216168,0.29868 -0.333311,0.74516 -0.612042,0.49504 -0.278549,-0.24998 -0.678073,-0.43234 -0.6339,-0.0763 0.04413,0.35604 0.114496,0.87526 -0.08223,0.70614 -0.196499,-0.16916 -0.58822,-0.38114 -0.479155,-0.0107 0.109338,0.37023 0.187372,0.85956 -0.02473,0.75004 -0.212289,-0.10952 -0.562482,-0.21795 -0.41285,0.12978 0.149588,0.34764 0.53629,0.84181 0.219865,0.86687 -0.316334,0.0249 -0.909892,-0.0742 -0.282427,0.15829 0.627419,0.23224 2.628416,0.37165 2.600854,1.65619 0,0 -0.426175,0.58795 -1.148421,-0.20033 -0.72243,-0.78832 -1.111686,-0.65703 -1.714327,-0.85235 -0.60264,-0.19544 -1.089598,-0.17642 -0.885204,-0.0371 0.204212,0.13936 0.734157,0.35015 0.417687,0.37511 -0.316244,0.025 -1.038901,0.0236 -0.7771,0.20695 0.261483,0.18349 0.450133,0.38241 0.09355,0.42987 -0.356582,0.0476 -0.979118,0.32017 -0.726488,0.40701 0.252491,0.0871 0.587078,0.25504 0.264219,0.43594 -0.322997,0.18089 -0.620027,0.52492 -0.343988,0.52268 0.276039,-0.002 0.891821,-0.11887 0.56376,0.34418 -0.328244,0.46308 -0.543043,0.88822 -0.22794,0.73694 0.315101,-0.15114 1.251188,-0.70112 0.980305,-0.19386 -0.270974,0.50709 0.06115,0.42267 0.376159,0.27167 0.314965,-0.15124 1.196474,-0.49294 0.964745,-0.13444 -0.231819,0.35822 -0.797041,0.67492 -0.390762,0.70121 0.406141,0.026 0.415358,0.12257 0.0051,0.50466 -0.41034,0.38218 -0.666848,0.70362 -0.34271,0.64891 0.32432,-0.0546 0.622491,-0.27252 0.489606,0.23351 -0.132932,0.50594 0.0023,1.03927 0.219635,0.86677 0.217536,-0.17264 0.665432,-0.0427 0.645627,0.42521 -0.01953,0.46798 0.253724,1.00007 0.45424,0.76095 0.200514,-0.23935 0.800827,-0.29649 0.886482,0.16323 0.0857,0.45953 0.261527,0.97031 0.462088,0.7311 0.200332,-0.23935 0.328108,-0.46305 0.471123,0.0405 0.143108,0.5037 0.398338,0.84321 0.417823,0.37524 0.01976,-0.46784 -0.04527,-1.26926 0.233281,-1.01928 0.278594,0.25007 0.597529,0.47765 0.494716,-0.0487 -0.102584,-0.5262 -0.16378,-0.94886 0.08867,-0.86193 0.252674,0.0869 0.51954,-0.0118 0.08602,-0.32751 -0.433477,-0.31565 -0.871698,-1.27076 -0.233782,-1.60285 0.637914,-0.33202 0.681358,0.0461 0.670862,0.61036 -0.01054,0.56435 0.477786,2.3584 0.740956,1.88093 0.263034,-0.47742 0.405,-0.88689 0.678347,-0.35475 0.273119,0.53236 0.650602,0.93001 0.800601,0.49069 0.149678,-0.43926 0.1693,-0.90729 0.522096,-0.54646 0.352521,0.36097 1.36153,0.58261 1.269167,0.279 -0.09222,-0.30359 -0.322676,-0.6062 0.19148,-0.33568 0.514203,0.2703 1.251006,0.87289 1.262779,0.43481 0.01182,-0.43814 -0.594928,-1.01221 0.294384,-0.59649 0.888947,0.41482 2.240164,0.77487 1.687082,-0.1337 z"
         id="path65-3-3-6-7"
         inkscape:connector-curvature="0"
         style="clip-rule:evenodd;display:inline;fill:#bbd641;fill-rule:evenodd;enable-background:new;fill-opacity:1" />
      <circle
         r="6"
         id="circle7479-1"
         style="display:inline;fill:#5f7c8a;fill-opacity:1;stroke:none;stroke-width:2;enable-background:new"
         cx="69.999977"
         cy="277" />
      <circle
         id="circle4339-5"
         style="display:inline;opacity:0.2;fill:#000000;fill-opacity:1;stroke:none;filter:url(#filter4253-6);enable-background:new"
         cx="584"
         cy="153.99994"
         r="120" />
      <circle
         r="120"
         cy="149.99994"
         cx="584"
         style="display:inline;opacity:0.2;fill:#000000;fill-opacity:1;stroke:none;filter:url(#filter4700);enable-background:new"
         id="circle4694" />
      <path
         d="m 635.99803,122.50178 c -12.90947,-21.19884 -30.85646,-35.426514 -22.92699,-38.089555 7.92627,-2.668356 15.24989,-9.137997 2.1562,-11.280347 C 602.13673,70.9927 588.44038,65.04375 596.36665,62.3722 c 7.93054,-2.660918 19.05118,-8.297887 9.35949,-11.163228 -9.68956,-2.861096 -22.78111,-5.003446 -16.18689,-8.697193 6.59102,-3.692675 20.01906,-5.889341 10.14529,-8.052975 C 589.8161,32.28771 569.18797,16.002844 579.18631,11.588229 589.18041,7.1736348 600.29893,1.5366438 587.78555,0.25463777 575.2743,-1.0284182 561.842,1.1671758 565.3952,-3.1952682 c 3.55851,-4.361372 16.53402,-13.9987528 0.30666,-7.2778118 -16.21672,6.7177458 -39.88694,26.495087 -56.44436,19.1821428 -16.55107,-7.304456 -15.69285,-35.0293828 9.72895,-30.9150428 25.42605,4.115412 60.48098,5.203627 56.25696,-0.13212 -4.224,-5.32926 -3.82578,-3.77467 -10.65851,-5.27921 -6.837,-1.50029 1.48963,-2.61086 10.17617,-5.10991 8.68654,-2.49587 17.92461,-7.0819 10.33055,-8.7451 -7.59725,-1.67066 -17.07173,-2.28397 -6.34506,-9.47767 10.72135,-7.19477 28.98457,-18.60716 19.14063,-17.83305 -9.8429,0.77622 -38.66881,-2.61618 -33.59298,-6.64748 5.06944,-4.02701 15.24775,-9.1348 1.06052,-7.11169 -14.18616,2.0284 -25.91479,3.85877 -23.11439,-0.66977 2.79188,-4.5264 11.81593,-11.36022 1.2458,-7.80702 -10.57333,3.55425 -30.82984,4.24638 -26.33645,-0.64419 4.49448,-4.88738 11.08977,-8.58218 0.88591,-6.41959 -10.21343,2.1679 -31.35374,9.27747 -25.1833,1.0818 6.16511,-8.19352 13.88482,-13.11071 2.19027,-8.33409 -11.69988,4.77665 -26.76662,13.21828 -22.08581,7.6356 4.67655,-5.58482 15.55442,-16.41583 0.11922,-6.58571 -15.43091,9.83332 -22.48085,24.44538 -21.62901,15.08378 0.84862,-9.3648 2.58422,-25.14389 -3.49572,-8.11795 -6.07993,17.03448 -6.28435,14.78245 -9.84287,19.14063 -3.55747,4.36561 -4.25596,10.08991 -9.99517,4.41779 -5.74345,-5.66786 -2.00285,-10.72346 2.09976,-17.16543 4.10263,-6.44516 2.55336,-9.7247 -4.98,-5.50388 -7.53337,4.21868 -13.42591,2.18919 -9.32327,-4.25276 4.09836,-6.44836 14.06689,-13.80711 2.91751,-11.11532 -11.15045,2.69817 -19.59635,10.39233 -16.28167,0.8316 3.31255,-9.55327 -0.33327,-14.02857 -5.37716,-7.05316 -5.0439,6.96905 -7.77722,17.38693 -14.28094,11.55081 -6.49946,-5.8329 -15.82167,-10.08779 -14.79096,-1.78137 1.02966,8.30747 2.67155,20.42261 -1.91874,16.47652 -4.58498,-3.94717 -13.7251,-8.89311 -11.18027,-0.2513 2.55124,8.63861 4.37202,20.05633 -0.57711,17.50085 -4.9534,-2.5555 -13.12456,-5.08544 -9.63314,3.02824 3.49038,8.11156 12.5134,19.64213 5.13015,20.2267 -7.38111,0.58137 -21.23078,-1.73027 -6.58995,3.69375 14.63975,5.4187 61.3296,8.67162 60.68648,38.6443058 0,0 -9.94405,13.718731 -26.79644,-4.6744038 -16.85666,-18.394202 -25.93929,-15.330812 -40.00087,-19.888092 -14.06158,-4.56048 -25.42391,-4.11648 -20.65472,-0.86461 4.76492,3.25185 17.13029,8.17011 9.74599,8.75256 -7.37899,0.58349 -24.24096,0.54941 -18.13228,4.8288 6.10125,4.281502 10.50307,8.922917 2.18282,10.030296 -8.32024,1.1105718 -22.84607,7.4705528 -16.95139,9.4968338 5.89146,2.03161897 13.69847,5.951094 6.16511,10.171919 -7.53657,4.2208032 -14.46727,12.2482282 -8.02637,12.1960562 6.4409,-0.05534 20.80914,-2.773772 13.15438,8.030641 -7.65901,10.80544 -12.67097,20.725009 -5.3186,17.195237 7.35234,-3.526578 29.19433,-16.359394 22.87374,-4.523225 -6.3227,11.831925 1.42682,9.862059 8.77704,6.338697 7.34917,-3.528722 27.91766,-11.501831 22.51067,-3.136875 -5.40912,8.358591 -18.59758,15.748206 -9.11777,16.361515 9.4766,0.607994 9.69168,2.860025 0.12032,11.775488 -9.57458,8.917584 -15.55976,16.417953 -7.99656,15.141262 7.56744,-1.275597 14.52476,-6.358909 11.42411,5.448516 -3.10175,11.805299 0.0543,24.249469 5.12481,20.224579 5.07583,-4.02811 15.52672,-0.99665 15.06461,9.92169 -0.45572,10.91938 5.92021,23.3348 10.5989,17.75532 4.67866,-5.58482 18.68593,-6.91792 20.68454,3.80874 1.99968,10.72241 6.10229,22.64056 10.78203,17.05894 4.67443,-5.5848 7.65584,-10.80439 10.99287,0.94555 3.33917,11.75311 9.29453,19.67511 9.74918,8.75573 0.46106,-10.9162 -1.05626,-29.61597 5.4432,-23.78307 6.50053,5.83502 13.94232,11.14511 11.54335,-1.13615 -2.39363,-12.27804 -3.82152,-22.1401 2.06889,-20.1117 5.89573,2.02736 12.1226,-0.2747 2.00712,-7.64196 -10.11441,-7.36514 -20.33957,-29.651126 -5.4549,-37.399579 14.88465,-7.747403 15.89833,1.075441 15.65342,14.241522 -0.24596,13.168227 11.14833,55.029257 17.28895,43.888407 6.13745,-11.13983 9.45,-20.69415 15.82807,-8.27768 6.37276,12.42181 15.18068,21.70037 18.68064,11.44966 3.4925,-10.24964 3.95036,-21.1701 12.18223,-12.75083 8.22548,8.42247 31.76898,13.59416 29.61385,6.51011 -2.15193,-7.08402 -7.52911,-14.14461 4.46786,-7.83256 11.99802,6.30674 29.19007,20.36724 29.46477,10.1453 0.2758,-10.22304 -13.88161,-23.61805 6.86895,-13.91784 20.74205,9.6789 52.2704,18.08008 39.36518,-3.11984 z"
         id="path65-3-3"
         inkscape:connector-curvature="0"
         style="clip-rule:evenodd;display:inline;fill:#bbd641;fill-rule:evenodd;enable-background:new;fill-opacity:1" />
      <circle
         r="120"
         cy="148"
         cx="584"
         style="display:inline;fill:#5f7c8a;fill-opacity:1;stroke:none;enable-background:new"
         id="circle3609-4" />
      <path
         id="path4323"
         d="m 178.24999,264 -0.15419,1.8438 a 5.5,5.5 0 0 0 -1.60759,0.92969 l -1.67575,-0.78917 -1.75,3.03136 1.52157,1.05653 a 5.5,5.5 0 0 0 -0.0841,0.92779 5.5,5.5 0 0 0 0.0801,0.93159 l -1.51758,1.05273 1.75,3.03136 1.67196,-0.78708 a 5.5,5.5 0 0 0 1.61119,0.9238 l 0.15438,1.8476 3.5,0 0.15419,-1.8438 a 5.5,5.5 0 0 0 1.60758,-0.92969 l 1.67575,0.78917 1.75,-3.03136 -1.52156,-1.05653 a 5.5,5.5 0 0 0 0.0841,-0.92779 5.5,5.5 0 0 0 -0.0801,-0.93159 l 1.51757,-1.05273 -1.75,-3.03136 -1.67195,0.78708 a 5.5,5.5 0 0 0 -1.61119,-0.9238 L 181.74999,264 l -3.5,0 z m 1.75,4.66667 A 2.3333333,2.3333333 0 0 1 182.33332,271 2.3333333,2.3333333 0 0 1 179.99999,273.33333 2.3333333,2.3333333 0 0 1 177.66665,271 a 2.3333333,2.3333333 0 0 1 2.33334,-2.33333 z"
         style="display:inline;opacity:1;fill:#ffffff;fill-opacity:1;stroke:none;stroke-opacity:1;enable-background:new"
         inkscape:connector-curvature="0" />
      <path
         id="path4327"
         d="m 68.99998,273 -0.0881,1.0536 a 3.142857,3.142857 0 0 0 -0.91861,0.53126 l -0.95758,-0.45096 -1,1.73219 0.86947,0.60374 A 3.142857,3.142857 0 0 0 66.85706,277 a 3.142857,3.142857 0 0 0 0.0458,0.53233 l -0.86718,0.60157 1,1.73219 0.95541,-0.44976 a 3.142857,3.142857 0 0 0 0.92068,0.52789 l 0.0882,1.05578 2,0 0.0881,-1.0536 a 3.142857,3.142857 0 0 0 0.9186,-0.53127 l 0.95758,0.45096 1,-1.73219 -0.86946,-0.60373 A 3.142857,3.142857 0 0 0 73.14289,277 a 3.142857,3.142857 0 0 0 -0.0458,-0.53234 l 0.86718,-0.60157 -1,-1.73219 -0.95539,0.44976 A 3.142857,3.142857 0 0 0 71.0882,274.05577 L 71,273 l -2,0 z m 1,2.66665 A 1.3333335,1.3333335 0 0 1 71.33331,277 1.3333335,1.3333335 0 0 1 69.99998,278.33334 1.3333335,1.3333335 0 0 1 68.66665,277 a 1.3333335,1.3333335 0 0 1 1.33333,-1.33335 z"
         style="display:inline;opacity:1;fill:#ffffff;fill-opacity:1;stroke:none;stroke-opacity:1;enable-background:new"
         inkscape:connector-curvature="0" />
      <path
         inkscape:connector-curvature="0"
         style="display:inline;opacity:1;fill:#ffffff;fill-opacity:1;stroke:none;stroke-opacity:1;enable-background:new"
         d="m 118.74999,270 -0.11013,1.317 a 3.9285714,3.9285714 0 0 0 -1.14827,0.66407 l -1.19697,-0.5637 -1.25,2.16525 1.08684,0.75467 a 3.9285714,3.9285714 0 0 0 -0.0601,0.66271 3.9285714,3.9285714 0 0 0 0.0572,0.66543 l -1.08398,0.75194 1.25,2.16525 1.19426,-0.5622 a 3.9285714,3.9285714 0 0 0 1.15085,0.65986 l 0.11027,1.31972 2.5,0 0.11014,-1.317 a 3.9285714,3.9285714 0 0 0 1.14825,-0.66407 l 1.19698,0.56369 1.25,-2.16525 -1.08683,-0.75466 A 3.9285714,3.9285714 0 0 0 123.9286,275 a 3.9285714,3.9285714 0 0 0 -0.0572,-0.66543 l 1.08398,-0.75195 -1.25,-2.16525 -1.19424,0.5622 a 3.9285714,3.9285714 0 0 0 -1.15086,-0.65985 L 121.25007,270 l -2.5,0 z m 1.25,3.33333 A 1.6666667,1.6666667 0 0 1 121.66666,275 1.6666667,1.6666667 0 0 1 119.99999,276.66667 1.6666667,1.6666667 0 0 1 118.33333,275 a 1.6666667,1.6666667 0 0 1 1.66666,-1.66667 z"
         id="path4325" />
      <path
         d="m 29.405639,278.96999 c -0.405727,-0.66624 -0.969776,-1.1134 -0.720564,-1.1971 0.249112,-0.0839 0.479283,-0.28719 0.06777,-0.35452 -0.411417,-0.0672 -0.841875,-0.2542 -0.592763,-0.33816 0.249246,-0.0836 0.598753,-0.2608 0.294156,-0.35085 -0.304529,-0.0899 -0.715979,-0.15725 -0.508732,-0.27334 0.207147,-0.11606 0.629172,-0.1851 0.318853,-0.2531 -0.310152,-0.0682 -0.958465,-0.58004 -0.644231,-0.71878 0.314101,-0.13875 0.66354,-0.31592 0.270262,-0.35621 -0.393212,-0.0403 -0.815371,0.0287 -0.703698,-0.10842 0.111839,-0.13707 0.519641,-0.43996 0.0096,-0.22874 -0.509669,0.21114 -1.253592,0.83271 -1.773969,0.60288 -0.520177,-0.22957 -0.493205,-1.10093 0.305768,-0.97162 0.799106,0.12934 1.900834,0.16354 1.768079,-0.004 -0.132755,-0.16749 -0.120239,-0.11864 -0.334983,-0.16592 -0.214877,-0.0472 0.04682,-0.0821 0.319824,-0.1606 0.273006,-0.0784 0.563345,-0.22258 0.324675,-0.27484 -0.238772,-0.0525 -0.536542,-0.0718 -0.199417,-0.29787 0.336957,-0.22613 0.910946,-0.5848 0.601564,-0.56048 -0.309349,0.0244 -1.215308,-0.0822 -1.055782,-0.20892 0.159326,-0.12656 0.479217,-0.28709 0.03333,-0.2235 -0.445851,0.0637 -0.814466,0.12127 -0.726453,-0.021 0.08774,-0.14225 0.371358,-0.35703 0.03916,-0.24536 -0.332305,0.11171 -0.96894,0.13346 -0.827718,-0.0203 0.141255,-0.15361 0.348536,-0.26973 0.02784,-0.20176 -0.320994,0.0681 -0.985405,0.29158 -0.791477,0.034 0.193762,-0.25751 0.436381,-0.41205 0.06884,-0.26193 -0.367712,0.15013 -0.841239,0.41544 -0.694127,0.23998 0.146977,-0.17552 0.488854,-0.51593 0.0038,-0.20698 -0.484973,0.30905 -0.706542,0.76829 -0.67977,0.47406 0.02667,-0.29432 0.08122,-0.79024 -0.109866,-0.25513 -0.191084,0.53537 -0.197508,0.46459 -0.309348,0.60156 -0.111806,0.13721 -0.133759,0.31711 -0.314134,0.13884 -0.18051,-0.17813 -0.06295,-0.33702 0.06599,-0.53948 0.12894,-0.20256 0.08025,-0.30563 -0.156514,-0.17298 -0.236764,0.13259 -0.421958,0.0688 -0.293018,-0.13366 0.128806,-0.20266 0.442103,-0.43394 0.09169,-0.34934 -0.350443,0.0848 -0.615886,0.32662 -0.51171,0.0261 0.104108,-0.30024 -0.01047,-0.44089 -0.168997,-0.22167 -0.158523,0.21903 -0.244427,0.54645 -0.44883,0.36303 -0.20427,-0.18332 -0.497254,-0.31705 -0.46486,-0.056 0.03236,0.2611 0.08396,0.64186 -0.0603,0.51784 -0.1441,-0.12406 -0.431362,-0.2795 -0.351381,-0.008 0.08018,0.2715 0.137406,0.63035 -0.01814,0.55003 -0.155679,-0.0803 -0.412488,-0.15983 -0.302757,0.0952 0.109698,0.25494 0.393279,0.61733 0.161234,0.6357 -0.231978,0.0183 -0.667254,-0.0544 -0.207113,0.11609 0.460107,0.1703 1.927505,0.27254 1.907292,1.21454 0,0 -0.312528,0.43116 -0.842175,-0.14691 -0.529782,-0.57811 -0.815236,-0.48183 -1.257173,-0.62506 -0.441935,-0.14333 -0.799038,-0.12937 -0.649149,-0.0272 0.149755,0.1022 0.538381,0.25678 0.306303,0.27508 -0.231912,0.0183 -0.76186,0.0173 -0.569873,0.15177 0.191754,0.13455 0.330097,0.28043 0.0686,0.31523 -0.261494,0.0349 -0.71802,0.23479 -0.532758,0.29848 0.18516,0.0638 0.430524,0.18703 0.19376,0.31969 -0.236864,0.13265 -0.454686,0.38494 -0.252258,0.3833 0.202429,-0.002 0.654003,-0.0872 0.413425,0.25239 -0.240713,0.3396 -0.398232,0.65136 -0.167157,0.54042 0.231075,-0.11083 0.917538,-0.51415 0.718891,-0.14216 -0.198714,0.37187 0.04484,0.30996 0.27585,0.19923 0.230975,-0.11091 0.877414,-0.36149 0.707479,-0.0986 -0.17,0.2627 -0.584496,0.49495 -0.286558,0.51423 0.297836,0.0191 0.304596,0.0899 0.0038,0.37008 -0.300916,0.28027 -0.489022,0.51599 -0.251321,0.47587 0.237835,-0.0401 0.456493,-0.19985 0.359044,0.17124 -0.09748,0.37103 0.0017,0.76213 0.161066,0.63563 0.159526,-0.1266 0.487983,-0.0313 0.47346,0.31183 -0.01432,0.34318 0.186064,0.73338 0.333109,0.55802 0.147044,-0.17552 0.587273,-0.21742 0.650087,0.1197 0.06285,0.33699 0.191786,0.71157 0.338864,0.53614 0.146911,-0.17552 0.240613,-0.33957 0.345491,0.0297 0.104945,0.36938 0.292114,0.61836 0.306403,0.27518 0.01449,-0.34308 -0.0332,-0.93079 0.171073,-0.74747 0.204302,0.18339 0.438188,0.35028 0.362792,-0.0357 -0.07523,-0.38588 -0.120106,-0.69584 0.06502,-0.63208 0.185294,0.0637 0.380996,-0.009 0.06308,-0.24018 -0.317882,-0.23147 -0.639245,-0.93189 -0.17144,-1.17542 0.467804,-0.24349 0.499663,0.0338 0.491966,0.4476 -0.0077,0.41385 0.350376,1.72949 0.543367,1.37935 0.192892,-0.35011 0.297001,-0.65039 0.497455,-0.26016 0.200287,0.3904 0.477108,0.68201 0.587107,0.35984 0.109764,-0.32212 0.124154,-0.66534 0.382871,-0.40073 0.258515,0.2647 0.998455,0.42724 0.930722,0.2046 -0.06763,-0.22264 -0.236629,-0.44455 0.140419,-0.24617 0.377082,0.19822 0.917404,0.64012 0.926038,0.31886 0.0087,-0.3213 -0.436281,-0.74229 0.215881,-0.43742 0.651894,0.30419 1.642787,0.56823 1.237194,-0.0981 z"
         id="path65-3-3-6"
         inkscape:connector-curvature="0"
         style="clip-rule:evenodd;display:inline;fill:#bbd641;fill-rule:evenodd;enable-background:new;fill-opacity:1" />
      <circle
         cy="279.5"
         cx="27.499981"
         style="display:inline;fill:#5f7c8a;fill-opacity:1;stroke:none;stroke-width:2;enable-background:new"
         id="circle4308-6"
         r="4.5" />
      <path
         inkscape:connector-curvature="0"
         style="display:inline;opacity:1;fill:#ffffff;fill-opacity:1;stroke:none;stroke-opacity:1;enable-background:new"
         d="m 565.99998,76 -1.5859,18.96484 a 56.571429,56.571429 0 0 0 -16.5352,9.5625 l -17.2363,-8.11718 -18,31.17968 15.6504,10.86719 a 56.571429,56.571429 0 0 0 -0.8653,9.54297 56.571429,56.571429 0 0 0 0.8242,9.58203 l -15.6093,10.82813 18,31.17968 17.1972,-8.0957 a 56.571429,56.571429 0 0 0 16.5723,9.50195 l 1.5879,19.00391 36,0 1.5859,-18.96484 a 56.571429,56.571429 0 0 0 16.5352,-9.5625 l 17.2363,8.11718 18,-31.17968 -15.6504,-10.86719 a 56.571429,56.571429 0 0 0 0.8653,-9.54297 56.571429,56.571429 0 0 0 -0.8242,-9.58203 l 15.6093,-10.82813 -18,-31.17968 -17.1972,8.0957 a 56.571429,56.571429 0 0 0 -16.5723,-9.50195 L 601.99998,76 l -36,0 z m 18,48 a 24,24 0 0 1 24,24 24,24 0 0 1 -24,24 24,24 0 0 1 -24,-24 24,24 0 0 1 24,-24 z"
         id="path10500" />
      <path
         inkscape:connector-curvature="0"
         style="display:inline;opacity:1;fill:#ffffff;fill-opacity:1;stroke:none;stroke-opacity:1;enable-background:new"
         d="m 26.87498,277 -0.0551,0.6585 a 1.9642856,1.9642856 0 0 0 -0.57413,0.33204 l -0.59849,-0.28185 -0.625,1.08262 0.54342,0.37733 a 1.9642856,1.9642856 0 0 0 -0.0301,0.33136 1.9642856,1.9642856 0 0 0 0.0286,0.33271 l -0.54199,0.37598 0.625,1.08262 0.59714,-0.2811 a 1.9642856,1.9642856 0 0 0 0.57542,0.32993 l 0.0551,0.65986 1.25,0 0.0551,-0.6585 a 1.9642856,1.9642856 0 0 0 0.57412,-0.33204 l 0.59849,0.28185 0.625,-1.08262 -0.54341,-0.37733 a 1.9642856,1.9642856 0 0 0 0.0301,-0.33136 1.9642856,1.9642856 0 0 0 -0.0286,-0.33271 l 0.54199,-0.37598 -0.625,-1.08262 -0.59712,0.2811 a 1.9642856,1.9642856 0 0 0 -0.57543,-0.32993 L 28.12499,277 l -1.25,0 z m 0.625,1.66666 a 0.83333343,0.83333343 0 0 1 0.83333,0.83334 0.83333343,0.83333343 0 0 1 -0.83333,0.83334 0.83333343,0.83333343 0 0 1 -0.83333,-0.83334 0.83333343,0.83333343 0 0 1 0.83333,-0.83334 z"
         id="path4329" />
    </g>
  </g>
</svg>
